<?xml version="1.0" encoding="UTF-8" standalone="no"?>
<!-- Uploaded to: SVG Repo, www.svgrepo.com, Generator: SVG Repo Mixer Tools -->

<svg
   fill="#000000"
   height="800px"
   width="800px"
   version="1.1"
   id="Capa_1"
   viewBox="0 0 470 470"
   xml:space="preserve"
   sodipodi:docname="beerzero.svg"
   inkscape:version="1.3 (0e150ed6c4, 2023-07-21)"
   inkscape:export-filename="gingbeer.png"
   inkscape:export-xdpi="96"
   inkscape:export-ydpi="96"
   xmlns:inkscape="http://www.inkscape.org/namespaces/inkscape"
   xmlns:sodipodi="http://sodipodi.sourceforge.net/DTD/sodipodi-0.dtd"
   xmlns="http://www.w3.org/2000/svg"
   xmlns:svg="http://www.w3.org/2000/svg"><defs
   id="defs5">&#10;	&#10;	&#10;	&#10;	&#10;	&#10;<filter
   inkscape:label="Jam Spread"
   inkscape:menu="Textures"
   inkscape:menu-tooltip="Glossy clumpy jam spread"
   style="color-interpolation-filters:sRGB;"
   id="filter13"
   x="-0.018011933"
   y="-0.006370966"
   width="1.0360239"
   height="1.0127419"><feGaussianBlur
     stdDeviation="1"
     in="SourceGraphic"
     result="result0"
     id="feGaussianBlur12" /><feTurbulence
     result="result1"
     numOctaves="7"
     seed="488"
     baseFrequency="0.017"
     type="turbulence"
     id="feTurbulence12" /><feComposite
     in="result0"
     in2="result1"
     operator="out"
     result="result2"
     id="feComposite12" /><feGaussianBlur
     stdDeviation="0.5"
     result="result5"
     id="feGaussianBlur13" /><feSpecularLighting
     in="result5"
     specularExponent="100"
     specularConstant="4"
     result="result4"
     surfaceScale="1.5"
     id="feSpecularLighting13"><feDistantLight
       azimuth="225"
       elevation="62"
       id="feDistantLight13" /></feSpecularLighting><feComposite
     operator="atop"
     in="result4"
     in2="result2"
     result="result91"
     id="feComposite13" /><feBlend
     mode="multiply"
     in2="result91"
     id="feBlend13" /></filter><filter
   inkscape:label="Blueprint"
   inkscape:menu="Image Paint and Draw"
   inkscape:menu-tooltip="Detect color edges and retrace them in blue"
   height="1.026467"
   y="-0.013238152"
   width="1.0751467"
   x="-0.03757348"
   style="color-interpolation-filters:sRGB;"
   id="filter40"><feGaussianBlur
     stdDeviation="1"
     in="SourceGraphic"
     result="result9"
     id="feGaussianBlur36" /><feTurbulence
     seed="0"
     result="result7"
     type="fractalNoise"
     numOctaves="5"
     baseFrequency="0.015"
     id="feTurbulence36" /><feComposite
     in2="result7"
     result="result6"
     operator="out"
     in="result9"
     id="feComposite36" /><feGaussianBlur
     result="result11"
     stdDeviation="2"
     id="feGaussianBlur37" /><feDisplacementMap
     in="result7"
     in2="result11"
     xChannelSelector="A"
     yChannelSelector="G"
     scale="100"
     result="result4"
     id="feDisplacementMap37" /><feComposite
     in2="result4"
     result="result2"
     operator="in"
     in="result9"
     id="feComposite37" /><feComposite
     result="fbSourceGraphic"
     operator="in"
     in2="SourceGraphic"
     id="feComposite38" /><feBlend
     result="fbSourceGraphic"
     mode="multiply"
     in2="fbSourceGraphic"
     id="feBlend38" /><feGaussianBlur
     result="result13"
     stdDeviation="0.5"
     id="feGaussianBlur38" /><feSpecularLighting
     in="result13"
     specularExponent="5"
     surfaceScale="15"
     result="result12"
     id="feSpecularLighting38"><feDistantLight
       elevation="35"
       azimuth="225"
       id="feDistantLight38" /></feSpecularLighting><feComposite
     in2="fbSourceGraphic"
     in="result12"
     result="result2"
     operator="in"
     id="feComposite39" /><feComposite
     in="fbSourceGraphic"
     result="fbSourceGraphic"
     operator="arithmetic"
     k2="1"
     k3="1"
     in2="result2"
     id="feComposite40" /><feColorMatrix
     result="fbSourceGraphicAlpha"
     in="fbSourceGraphic"
     values="0 0 0 -1 0 0 0 0 -1 0 0 0 0 -1 0 0 0 0 1 0"
     id="feColorMatrix40" /><feConvolveMatrix
     id="feConvolveMatrix40"
     order="3 3"
     kernelMatrix="1 1 1 1 -8 1 1 1 1"
     in="fbSourceGraphic"
     divisor="1"
     targetX="1"
     targetY="1"
     preserveAlpha="true"
     result="result0"
     bias="0" /><feColorMatrix
     id="feColorMatrix41"
     result="result3"
     values="-0.15 -0.3 -0.05 0 1 -0.15 -0.3 -0.05 0 1 0 0 0 0 1 0 0 0 1 0" /></filter></defs><sodipodi:namedview
   id="namedview5"
   pagecolor="#ffffff"
   bordercolor="#000000"
   borderopacity="0.25"
   inkscape:showpageshadow="2"
   inkscape:pageopacity="0.0"
   inkscape:pagecheckerboard="0"
   inkscape:deskcolor="#d1d1d1"
   inkscape:zoom="1.01625"
   inkscape:cx="400"
   inkscape:cy="400"
   inkscape:window-width="1920"
   inkscape:window-height="1009"
   inkscape:window-x="1912"
   inkscape:window-y="-8"
   inkscape:window-maximized="1"
   inkscape:current-layer="Capa_1" />&#10;<path
   d="m 220,369.523 c -4.135,0 -7.5,3.365 -7.5,7.5 0,4.135 3.365,7.5 7.5,7.5 4.135,0 7.5,-3.365 7.5,-7.5 0,-4.135 -3.365,-7.5 -7.5,-7.5 z"
   id="path1"
   style="display:inline" /><path
   d="m 250,390.523 c -4.135,0 -7.5,3.365 -7.5,7.5 0,4.135 3.365,7.5 7.5,7.5 4.135,0 7.5,-3.365 7.5,-7.5 0,-4.135 -3.365,-7.5 -7.5,-7.5 z"
   id="path2" /><path
   d="m 270.39247,232.2221 c -2.9274,2.234 -4.39634,3.356 -8.18918,3.356 -3.79284,0 -5.26178,-1.122 -8.1892,-3.356 -3.6713,-2.804 -8.70153,-6.644 -18.00657,-6.644 -9.30504,0 -14.33318,3.84 -18.00553,6.644 -2.92636,2.234 -4.3953,3.356 -8.18605,3.356 -3.79075,0 -5.26074,-1.122 -8.18605,-3.356 -3.67235,-2.804 -8.70154,-6.644 -18.00553,-6.644 -4.33977,0 -7.85811,3.357 -7.85811,7.5 l -0.0126,199.987 c 0,2.402 1.20596,4.66 3.24382,6.07 0.52598,0.364 1.09071,0.661 1.68059,0.888 0.95764,0.381 1.98653,0.578 3.0259,0.578 0.002,0 104.67097,-0.023 104.67097,-0.023 3.31926,-0.001 6.188,-1.974 7.33004,-4.797 0.3709,-0.886 0.56369,-1.833 0.56369,-2.791 l -0.0115,-199.912 c 0,-4.143 -3.51833,-7.5 -7.8581,-7.5 -9.30504,0 -14.33423,3.84 -18.00659,6.644 z m -78.92153,193.377 0.0115,-181.916 c 0.10792,0.082 0.21688,0.165 0.32795,0.251 3.6713,2.804 8.70049,6.644 18.00553,6.644 9.30399,0 14.33318,-3.84 18.00553,-6.644 2.92635,-2.234 4.3953,-3.356 8.18709,-3.356 3.79285,0 5.26179,1.122 8.1892,3.356 3.67235,2.804 8.70153,6.644 18.00657,6.644 9.30504,0 14.33528,-3.84 18.00659,-6.644 0.11315,-0.086 0.22317,-0.17 0.33213,-0.253 l 0.0115,181.898 z"
   id="path4"
   style="stroke-width:1.0236" /><path
   d="m 279.123,159.864 -8.867,-109.513 7.548,-7.548 c 2.009,-2.009 2.71,-4.98 1.812,-7.676 l -10,-30 C 268.595,2.065 265.729,0 262.5,0 h -55 c -3.228,0 -6.094,2.065 -7.115,5.128 l -10,30 c -0.898,2.695 -0.197,5.667 1.812,7.676 0,0 4.589,4.589 7.548,7.547 l -8.868,109.514 c -26.49,14.308 -43.377,42.35 -43.377,72.636 v 200 c 0,20.678 16.822,37.5 37.5,37.5 h 100 c 20.678,0 37.5,-16.822 37.5,-37.5 v -200 c 0,-30.287 -16.887,-58.329 -43.377,-72.637 z M 307.5,432.5 c 0,12.406 -10.094,22.5 -22.5,22.5 H 185 c -12.407,0 -22.5,-10.094 -22.5,-22.5 v -200 c 0,-25.985 15.197,-49.954 38.717,-61.063 2.426,-1.146 4.056,-3.501 4.272,-6.176 L 214.417,55 H 232.5 c 4.143,0 7.5,-3.357 7.5,-7.5 0,-4.143 -3.357,-7.5 -7.5,-7.5 H 210.607 L 206.081,35.475 212.906,15 h 44.189 l 6.824,20.475 -6.723,6.722 c -1.556,1.556 -2.35,3.716 -2.172,5.909 l 9.486,117.156 c 0.217,2.675 1.846,5.03 4.272,6.176 23.52,11.108 38.717,35.077 38.717,61.063 V 432.5 Z"
   id="path5"
   style="fill:#000000;fill-opacity:1" />&#10;<text
   xml:space="preserve"
   style="font-size:73.7997px;fill:#ffeeaa;stroke:#1a1a1a;stroke-width:1.68224;stroke-linecap:round;stroke-linejoin:round"
   x="190.1512"
   y="362.64642"
   id="text6"
   transform="scale(1.0813107,0.92480358)"><tspan
     sodipodi:role="line"
     id="tspan6"
     style="font-style:normal;font-variant:normal;font-weight:normal;font-stretch:normal;font-family:sans-serif;-inkscape-font-specification:sans-serif;fill:#1a1a1a;stroke-width:1.68224"
     x="190.1512"
     y="362.64642" /></text><path
   style="display:inline;fill:#00ffff;fill-opacity:1;stroke:#00ffff;stroke-width:1.67478;stroke-linecap:round;stroke-linejoin:round"
   d="m 408.85609,78.228782 c 0,-2.438685 -0.21114,-2.815111 -3.58756,-6.396064 l -3.24733,-3.444034 -21.52599,-0.298114 -21.52599,-0.298113 -3.69694,-3.78601 -3.69694,-3.78601 5.74109,-17.31809 5.7411,-17.318091 H 400 436.94247 l 5.74569,17.331956 5.74569,17.331956 -6.75075,6.995324 c -3.71291,3.847429 -6.83174,7.162251 -6.93073,7.366271 -0.099,0.204021 -5.68832,0.437556 -12.42072,0.518968 -11.98352,0.144911 -12.98777,0.445585 -11.1758,3.346054 0.49142,0.786619 0.21541,1.230012 -0.76567,1.230012 -0.84375,0 -1.53409,-0.664207 -1.53409,-1.476015 z"
   id="path13"
   transform="scale(0.5875)" /><path
   style="fill:#00ffff;fill-opacity:1;stroke:#00ffff;stroke-width:1.67478;stroke-linecap:round;stroke-linejoin:round;stroke-opacity:1"
   d="M 326.19926,570.13707 V 416.0429 l 3.19803,2.13586 c 9.85999,6.58517 20.55027,9.45802 31.73432,8.52812 9.70484,-0.8069 15.04887,-2.90827 25.92764,-10.19519 9.43191,-6.31778 9.53728,-6.35866 15.4415,-5.99082 5.3891,0.33575 6.70158,0.9037 14.04111,6.076 11.44187,8.06331 16.90747,9.88134 29.7066,9.88134 11.63548,0 18.09229,-1.7969 25.99543,-7.2344 l 4.50888,-3.10219 v 154.04481 154.04481 h -75.27676 -75.27675 z m 105.25103,119.18148 c 4.82802,-2.49666 6.92609,-6.07957 6.92609,-11.82778 0,-5.7482 -2.09807,-9.33111 -6.92609,-11.82777 -5.77152,-2.98457 -13.5074,-0.80677 -17.21068,4.84515 -2.08252,3.17832 -2.08252,10.78693 0,13.96525 3.70328,5.65192 11.43916,7.82972 17.21068,4.84515 z m -52.87125,-34.99857 c 5.18432,-1.4398 8.79283,-6.43153 8.79283,-12.16331 0,-8.04958 -5.15828,-13.37438 -12.95613,-13.37438 -7.6472,0 -12.79212,5.1267 -12.79212,12.74681 0,6.85494 3.86678,11.96691 9.91226,13.10423 1.31332,0.24706 2.60926,0.50705 2.87986,0.57773 0.27061,0.0707 2.14409,-0.3303 4.1633,-0.89108 z"
   id="path29"
   transform="scale(0.5875)" /><path
   style="fill:#fff6d5;fill-opacity:1;stroke:#280b0b;stroke-width:1.67478;stroke-linecap:round;stroke-linejoin:round;stroke-opacity:1;filter:url(#filter40)"
   d="m 309.25508,773.41915 c -10.48047,-1.80472 -20.40421,-8.43037 -26.23397,-17.51526 -6.37932,-9.94132 -6.02293,1.40436 -6.01654,-191.53498 0.006,-190.29837 -0.15238,-184.4083 5.44902,-202.25738 3.45421,-11.007 11.24924,-26.08918 18.36339,-35.53038 9.86235,-13.08833 24.0073,-24.81653 40.7039,-33.74941 2.74423,-1.4682 5.78653,-4.01868 6.76066,-5.66776 1.50025,-2.53972 2.94979,-17.46801 9.47722,-97.60267 4.23833,-52.0324 7.7274,-94.715062 7.75348,-94.850363 0.0261,-0.135301 6.80018,-0.248472 15.05357,-0.25149 8.25338,-0.003 16.612,-0.451544 18.57472,-0.996722 4.62157,-1.283728 8.5208,-5.237834 9.30916,-9.440178 0.4639,-2.472786 1.13503,-3.33375 2.59869,-3.33375 1.48882,0 1.84693,-0.483167 1.45863,-1.96802 -0.48139,-1.840821 -0.0277,-1.968719 7.01931,-1.978849 4.14367,-0.006 9.195,-0.285383 11.22518,-0.620948 3.63343,-0.600566 3.68313,-0.565734 3.17443,2.224852 -0.28424,1.559233 3.20539,48.475418 7.75471,104.258188 6.31896,77.48153 8.63512,102.12637 9.81185,104.40191 1.02781,1.98756 3.76769,4.15086 8.23426,6.50143 33.5707,17.66685 56.33765,49.49975 61.87379,86.51234 1.21372,8.11447 1.38822,36.05167 1.16781,186.96187 -0.24344,166.6859 -0.36395,177.68981 -1.99151,181.84991 -3.85361,9.84999 -12.73164,18.61785 -23.08207,22.79563 l -5.68985,2.29662 -89.05289,0.14755 c -48.97909,0.0812 -91.14272,-0.21231 -93.69695,-0.65214 z m 188.88324,-24.85032 c 6.64776,-3.63311 6.16672,10.58224 6.16672,-182.23676 V 391.60702 l -3.3332,-3.63716 c -3.13918,-3.42544 -3.73818,-3.66004 -10.28992,-4.03025 -9.32676,-0.527 -18.68664,2.32758 -26.92826,8.2126 -14.82237,10.5841 -20.11581,10.85083 -32.45697,1.63543 -10.86802,-8.11536 -18.96876,-10.54142 -32.64967,-9.77812 -10.8906,0.60762 -17.05233,2.87349 -26.49937,9.74468 -3.74023,2.72042 -8.11197,5.40342 -9.71498,5.96224 -5.2315,1.8237 -11.36629,0.39055 -17.41993,-4.06947 -3.04114,-2.24057 -8.75507,-5.66594 -12.69762,-7.61194 -6.15357,-3.03732 -8.38222,-3.59953 -15.74416,-3.97168 -7.46042,-0.37713 -8.99955,-0.16602 -11.83313,1.62305 -6.51549,4.11378 -6.09084,-8.54816 -6.09084,181.61253 0,185.42069 -0.26716,175.36219 4.779,179.9289 1.11566,1.00965 3.48571,2.18548 5.2668,2.61296 1.78108,0.42747 44.41914,0.70736 94.75124,0.62197 85.46073,-0.14499 91.72332,-0.27025 94.69429,-1.89393 z"
   id="path30"
   transform="scale(0.5875)" /><text
   xml:space="preserve"
   style="font-style:normal;font-variant:normal;font-weight:normal;font-stretch:normal;font-size:90.0618px;font-family:'Century Schoolbook';-inkscape-font-specification:'Century Schoolbook';fill:#ffffff;fill-opacity:1;stroke:#ffffff;stroke-width:1.59672;stroke-linecap:round;stroke-linejoin:round;stroke-opacity:1"
   x="201.27322"
   y="352.06705"
   id="text40"
   transform="scale(1.0378952,0.9634884)"><tspan
     sodipodi:role="line"
     id="tspan40"
     style="stroke-width:1.59672;fill:#ffffff;stroke:#ffffff"
     x="201.27322"
     y="352.06705">0</tspan></text><path
   style="fill:#cccccc;stroke:none;stroke-width:1.67478;stroke-linecap:round;stroke-linejoin:round"
   d="m 374.28313,628.38446 c -9.72399,-0.21845 -16.56883,11.11796 -11.97916,19.69365 3.85887,8.24632 16.25962,10.17389 22.14022,2.95203 8.22042,-8.23971 1.38286,-23.21058 -10.16106,-22.64568 z"
   id="path6"
   transform="scale(0.5875)" /><path
   style="fill:#a8c1f0;stroke:none;stroke-width:1.67478;stroke-linecap:round;stroke-linejoin:round;fill-opacity:1"
   d="m 425.13069,663.89337 c -7.95637,-0.0617 -14.62527,7.4872 -12.78252,15.42897 0.003,11.0657 15.44512,15.81006 22.5688,8.03544 8.79765,-8.10297 2.7388,-24.52655 -9.78628,-23.46441 z"
   id="path7"
   transform="scale(0.5875)" /><path
   style="fill:#a8c1f0;fill-opacity:1;stroke:none;stroke-width:1.67478;stroke-linecap:round;stroke-linejoin:round"
   d="m 373.9468,626.86232 c -12.24292,-0.26399 -18.94972,16.35646 -10.70303,25.12492 7.35047,9.48881 24.51644,4.78896 25.74185,-7.25515 1.81634,-9.19947 -5.63687,-18.15948 -15.03882,-17.86977 z"
   id="path8"
   transform="scale(0.5875)" /><path
   style="fill:#a8c1f0;fill-opacity:1;stroke:none;stroke-width:1.67478;stroke-linecap:round;stroke-linejoin:round"
   d="m 424.54451,662.26553 c -9.11683,0.34164 -15.66527,9.64597 -13.54743,18.40214 1.30834,11.68846 18.43931,16.41558 25.62077,6.95917 8.29371,-8.67847 1.89757,-25.17267 -10.31481,-25.369 -0.58573,-0.0287 -1.17313,-0.0358 -1.75853,0.008 z"
   id="path9"
   transform="scale(0.5875)" /></svg>
