<?xml version="1.0" encoding="UTF-8" standalone="no"?>
<!-- Uploaded to: SVG Repo, www.svgrepo.com, Generator: SVG Repo Mixer Tools -->

<svg
   fill="#000000"
   height="400"
   width="400"
   version="1.1"
   id="Capa_1"
   viewBox="0 0 235.0005 235.0005"
   xml:space="preserve"
   sodipodi:docname="darklimo.svg"
   inkscape:version="1.3 (0e150ed6c4, 2023-07-21)"
   xmlns:inkscape="http://www.inkscape.org/namespaces/inkscape"
   xmlns:sodipodi="http://sodipodi.sourceforge.net/DTD/sodipodi-0.dtd"
   xmlns="http://www.w3.org/2000/svg"
   xmlns:svg="http://www.w3.org/2000/svg"><defs
   id="defs5">&#10;	&#10;	&#10;	&#10;	&#10;	&#10;</defs><sodipodi:namedview
   id="namedview5"
   pagecolor="#ffffff"
   bordercolor="#000000"
   borderopacity="0.25"
   inkscape:showpageshadow="2"
   inkscape:pageopacity="0.0"
   inkscape:pagecheckerboard="0"
   inkscape:deskcolor="#d1d1d1"
   inkscape:zoom="2.0325"
   inkscape:cx="200"
   inkscape:cy="200"
   inkscape:window-width="1920"
   inkscape:window-height="1009"
   inkscape:window-x="1912"
   inkscape:window-y="-8"
   inkscape:window-maximized="1"
   inkscape:current-layer="Capa_1" />&#10;<path
   d="m 192.59873,43.939311 c -3.15046,-0.994276 -6.45756,-1.498088 -9.82924,-1.498088 -13.5312,0 -27.16102,7.853837 -37.39512,21.548238 -0.55001,0.735201 -0.80476,1.64592 -0.71667,2.556639 l 2.63497,27.121817 c 0.0716,0.732729 0.36184,1.428376 0.83429,1.997452 11.44374,13.782411 17.74616,31.206211 17.74616,49.062131 0,1.62268 -0.054,3.29431 -0.16115,4.96693 -0.068,1.06497 0.33182,2.1077 1.09653,2.86021 0.70617,0.69465 1.65956,1.08178 2.64949,1.08178 0.083,0 0.16666,-0.003 0.25024,-0.008 19.37019,-1.27906 38.29247,-18.85316 46.01472,-42.73704 4.73295,-14.63676 4.82954,-29.729871 0.27276,-42.498227 -4.42666,-12.405844 -12.73647,-21.08981 -23.39698,-24.453833 z m 15.97351,64.694649 c -6.22835,19.26255 -20.30958,33.84245 -35.19706,37.01167 0.003,-0.30751 0.005,-0.61357 0.005,-0.91813 0,-19.18542 -6.64075,-37.91645 -18.72259,-52.878548 L 152.27033,67.275861 C 160.8499,56.342786 172.16603,49.8575 182.76899,49.8575 c 2.59544,0 5.13333,0.385647 7.54459,1.146556 8.36836,2.640689 14.97456,9.692085 18.60198,19.854856 4.01677,11.252964 3.89465,24.668514 -0.34383,37.775048 z"
   id="path1"
   style="display:inline;stroke-width:0.497435" /><path
   d="m 230.15602,63.460434 c -6.02716,-16.888345 -17.74268,-28.838934 -32.989,-33.651108 -4.63885,-1.463479 -9.48141,-2.205601 -14.39453,-2.205601 -11.38669,0 -22.97558,4.020117 -33.24522,11.435899 l -1.21464,-12.502359 c -0.15865,-1.63603 -1.38881,-2.973434 -3.02233,-3.285904 L 33.236526,1.8020047 c -1.036974,-0.1987562 -2.113986,0.044003 -2.961281,0.669937 -0.847297,0.6259337 -1.387805,1.5762059 -1.4894,2.615968 L 20.357427,91.848459 C 8.2750773,106.81054 1.6348395,125.54159 1.6348395,144.727 c 0,28.32128 14.3584885,54.68021 37.9036065,70.37008 -2.054931,2.01625 -3.328627,4.80873 -3.328627,7.88895 0,6.13376 5.051745,11.12441 11.260578,11.12441 h 80.075213 c 6.20884,0 11.26058,-4.99065 11.26058,-11.12441 0,-3.08122 -1.27469,-5.87468 -3.33062,-7.89092 16.58658,-11.06953 28.89565,-27.65331 34.4929,-46.62959 11.58538,-0.59676 23.05417,-5.1909 33.32431,-13.37797 12.07734,-9.62732 21.57176,-23.72072 26.73361,-39.68451 5.72188,-17.697206 5.76842,-36.144948 0.12963,-51.942606 z m -7.28136,49.687076 c -4.72043,14.5972 -13.34903,27.44269 -24.29681,36.16918 -9.68309,7.71886 -20.46924,11.7993 -31.19331,11.79978 l -0.28026,-0.004 c -1.73413,0 -3.23254,1.14903 -3.65644,2.79199 -5.19288,20.13073 -18.62148,37.55503 -36.90667,47.9571 H 62.484501 c -2.073448,0 -3.753525,1.65976 -3.753525,3.70814 0,2.04838 1.680077,3.70814 3.753525,3.70814 h 65.060119 c 2.07095,0 3.75452,1.66322 3.75452,3.70814 0,2.04491 -1.68357,3.70814 -3.75353,3.70814 H 47.470397 c -2.069944,0 -3.753525,-1.66323 -3.753525,-3.70814 0,-2.04492 1.683581,-3.70814 3.753525,-3.70814 1.708105,0 3.201008,-1.13963 3.632412,-2.77221 0.430405,-1.63356 -0.308789,-3.3477 -1.799691,-4.17189 C 24.530848,198.6413 9.1418916,172.73576 9.1418916,144.72695 c 0,-17.85592 6.3024204,-35.27972 17.7461704,-49.062126 0.472444,-0.569075 0.762717,-1.264722 0.834284,-1.997451 l 8.141648,-83.807831 105.244866,20.145574 1.61552,16.627292 c 0.13563,1.393766 1.05449,2.593719 2.37623,3.101487 1.31924,0.506779 2.81865,0.236332 3.87264,-0.701085 10.15204,-9.035992 22.15582,-14.012808 33.79976,-14.012808 4.13687,0 8.2112,0.623956 12.11036,1.85407 12.95318,4.088346 22.96608,14.40587 28.193,29.052521 5.09777,14.28276 5.02621,31.05294 -0.20171,47.220917 z"
   id="path2"
   style="display:inline;stroke-width:0.497435" /><path
   d="m 75.302543,122.34072 c 1.503912,5.36692 4.377613,10.43471 8.640117,14.64567 6.380993,6.30334 14.863963,9.77515 23.88744,9.77515 9.02297,0 17.50595,-3.47132 23.88694,-9.77515 0.70365,-0.69564 1.09902,-1.6385 1.09902,-2.6224 0,-0.98389 -0.39537,-1.92624 -1.09902,-2.62239 L 89.250645,89.78871 c -1.466377,-1.447656 -3.842609,-1.447656 -5.308486,0 -8.743714,8.63848 -11.675969,20.87188 -8.810276,31.92806 0.01851,0.10283 0.03903,0.20569 0.06707,0.30852 0.03003,0.10828 0.06556,0.21259 0.103598,0.31543 z m 8.385377,1.27709 18.83419,-4.98572 -5.050241,18.61931 c -3.030848,-1.28449 -5.818466,-3.13659 -8.220724,-5.5098 -2.435287,-2.40535 -4.286025,-5.17161 -5.563225,-8.12379 z m 24.14218,15.72744 c -1.04599,0 -2.08095,-0.0672 -3.10442,-0.18539 l 5.04724,-18.60795 13.79446,13.62816 c -4.51774,3.35216 -9.98587,5.16518 -15.73728,5.16518 z m -21.04377,-41.502957 13.79296,13.626177 -18.825687,4.98324 c -0.771726,-6.46403 0.903849,-13.16191 5.032727,-18.609417 z"
   id="path3"
   style="display:inline;stroke-width:0.497435" /><path
   d="m 52.092739,121.25399 c -8.743713,8.63849 -11.675967,20.87188 -8.810276,31.92807 0.01851,0.10283 0.03903,0.20568 0.06707,0.30851 0.02952,0.10827 0.06506,0.2131 0.103096,0.31643 1.503913,5.36642 4.377612,10.43372 8.639616,14.64418 6.380994,6.30334 14.863963,9.77465 23.88744,9.77465 9.022977,0 17.505945,-3.47131 23.88694,-9.77465 1.465875,-1.44866 1.465875,-3.79615 0,-5.2443 L 57.400229,121.25399 c -1.464876,-1.44765 -3.841109,-1.44765 -5.307487,0 z m 2.843672,8.05309 13.792956,13.62618 -18.825684,4.98324 c -0.771224,-6.46403 0.903849,-13.16192 5.032728,-18.60942 z m -3.09841,25.77552 18.834193,-4.98572 -5.050246,18.61931 c -3.030846,-1.2845 -5.818465,-3.1361 -8.220721,-5.50931 -2.434788,-2.40583 -4.285526,-5.17211 -5.563226,-8.12428 z m 24.142678,15.72646 c -1.045981,0 -2.080955,-0.0673 -3.103915,-0.18541 l 5.04674,-18.60744 13.794459,13.62816 c -4.517744,3.35215 -9.986381,5.16469 -15.737284,5.16469 z"
   id="path4"
   style="display:inline;stroke-width:0.497435" /><path
   d="m 140.14796,97.748353 -3.09992,-31.91125 c -0.18467,-1.902027 -1.80268,-3.35364 -3.7365,-3.35364 H 41.70398 c -1.933816,0 -3.551836,1.452107 -3.73651,3.35364 l -3.099411,31.91125 -2.175544,2.619927 c -8.660135,10.42975 -14.0517,23.06066 -15.593148,36.52664 -0.23322,2.03503 1.247671,11.36515 3.307607,11.59505 2.057433,0.23287 3.60046,13.5977 4.151399,-10.76145 1.378796,-12.04207 6.198324,-23.33459 13.938594,-32.65684 l 2.900225,-3.49307 c 0.472443,-0.56907 0.762717,-1.26472 0.834284,-1.996953 l 2.883208,-29.681422 h 84.786646 l 2.88371,29.681422 c 0.0716,0.732723 0.36185,1.428373 0.83428,1.997453 l 2.90022,3.49257 c 9.24769,11.13776 14.34048,25.22177 14.34048,39.65631 0,13.00371 -3.99425,25.46602 -11.55235,36.04015 -4.63235,6.48084 -10.34171,11.94762 -16.98246,16.2624 H 52.690802 c -6.64174,-4.31528 -12.351104,-9.78156 -16.982454,-16.2624 -6.129759,-8.57619 -9.987883,-18.61486 -11.157481,-29.03226 -0.784226,-18.74956 -2.200601,-20.09928 -4.263039,-19.87333 -2.060435,0.22545 -4.379846,2.09799 -3.19797,20.69011 1.308729,11.65987 5.626286,22.89603 12.48573,32.49318 5.409581,7.56856 12.137901,13.90157 19.999287,18.82448 0.601064,0.37626 1.298219,0.57601 2.009887,0.57601 h 71.846488 c 0.71167,0 1.40832,-0.19975 2.00989,-0.57601 7.86039,-4.92192 14.5887,-11.25592 19.99929,-18.82448 8.45645,-11.83292 12.92664,-25.77404 12.92664,-40.31785 0,-16.14523 -5.69785,-31.89938 -16.04356,-44.36021 z"
   id="path5"
   sodipodi:nodetypes="ccssccccccccccccccssccccccccssccscc"
   style="display:inline;stroke-width:0.497435" />&#10;<path
   style="fill:#b400de;stroke:#b400de;stroke-width:0.380057;stroke-linecap:round;stroke-linejoin:round;fill-opacity:1;stroke-opacity:1"
   d="m 44.808324,69.693875 c -0.740303,3.894736 -0.838438,7.947173 -1.324147,11.902109 -0.664906,6.297482 -1.11211,12.637292 -2.028235,18.892856 -3.626988,4.92485 -7.744985,9.55803 -10.497393,15.05844 -4.529037,8.74294 -7.274498,18.51393 -7.049738,28.38265 -0.138006,5.60585 0.283777,11.24447 1.838318,16.65895 3.890707,14.93507 13.593948,28.31273 26.628796,36.76272 23.338115,0.0995 46.704319,0.0223 70.053235,0.0539 9.14051,-5.68894 16.5406,-14.03426 21.58601,-23.46079 8.25342,-15.22212 9.52905,-33.83994 3.68192,-50.08776 -2.77239,-8.15961 -7.62047,-15.43966 -13.20123,-21.98322 -1.57084,-1.4618 -1.1095,-3.789612 -1.51503,-5.692331 -0.93681,-8.74783 -1.72363,-17.558194 -2.5819,-26.293489 -0.9399,-0.822481 -2.63718,-0.162635 -3.86836,-0.375155 -27.098441,0 -54.196867,0 -81.295301,0 -0.142316,0.06041 -0.28463,0.120796 -0.426945,0.181199 z m 41.973247,19.521686 c 1.88452,0.240975 2.964846,2.105446 4.37477,3.180931 13.451199,13.086988 26.850129,26.226868 40.015789,39.593898 1.73622,1.42903 1.19345,4.1957 -0.54443,5.38959 -7.98136,7.47021 -19.92394,10.62295 -30.60905,7.96531 -11.365477,-2.57551 -21.018894,-11.66811 -24.151156,-22.86806 -1.454948,-4.82154 -1.489781,-9.90898 -0.800403,-14.8805 1.264513,-6.58088 4.439125,-12.972458 9.387114,-17.554512 0.652692,-0.524319 1.465176,-0.915217 2.327366,-0.826657 z M 54.788688,120.64646 c 1.979898,0.13563 2.989607,2.16481 4.447883,3.22951 12.97724,12.58425 25.843341,25.29925 38.564857,38.13562 1.107685,1.36917 3.287762,2.67189 2.553342,4.72761 -1.218493,2.38195 -3.7068,3.79876 -5.787245,5.37525 -8.475927,5.73249 -19.703409,7.22008 -29.351348,3.84894 -10.739638,-3.51997 -19.321832,-12.90409 -21.668069,-23.84572 -2.470575,-10.73723 0.796718,-22.85885 8.977278,-30.52708 0.640496,-0.51517 1.407892,-0.97555 2.263302,-0.94413 z"
   id="path7" /><path
   style="fill:#ffff00;stroke:#ffff00;stroke-width:0.380057;stroke-linecap:round;stroke-linejoin:round"
   d="m 86.36515,97.599647 c -3.861787,5.297343 -5.930015,12.003743 -5.043053,18.522933 0.282146,1.35591 1.940663,0.28282 2.797779,0.20306 5.396929,-1.43433 10.807637,-2.82908 16.169514,-4.38493 1.01634,-0.79582 -0.573828,-1.67711 -1.004284,-2.32004 -4.018645,-4.1049 -8.079053,-8.23777 -12.27521,-12.126141 -0.22272,-0.229148 -0.429414,0.06056 -0.644746,0.105118 z"
   id="path9" /><path
   style="fill:#ffff00;stroke:#ffff00;stroke-width:0.380057;stroke-linecap:round;stroke-linejoin:round"
   d="m 102.0722,118.40012 c -6.181532,1.47512 -12.34841,3.05044 -18.456968,4.79307 -0.88883,0.83539 0.477164,1.95591 0.751616,2.81333 2.044355,3.72924 5.098629,6.91759 8.624967,9.31393 1.371298,0.76106 2.679106,1.95427 4.27385,2.13883 1.156906,-0.76554 1.074138,-2.48777 1.606574,-3.66184 1.337391,-4.95324 2.857211,-9.88857 3.881851,-14.90703 -0.12658,-0.30455 -0.32379,-0.5364 -0.68189,-0.49029 z"
   id="path10" /><path
   style="fill:#ffff00;stroke:#ffff00;stroke-width:0.380057;stroke-linecap:round;stroke-linejoin:round"
   d="m 109.52074,120.43707 c -0.96818,1.91155 -1.20976,4.17946 -1.90256,6.22163 -1.04489,4.13863 -2.39904,8.24169 -3.21642,12.41402 0.763,1.04652 2.41164,0.58292 3.55159,0.72489 4.43663,-0.099 8.86581,-1.09995 12.72499,-3.31564 1.13924,-0.68515 2.59111,-1.14493 3.28572,-2.32891 -0.90847,-1.58161 -2.62129,-2.66143 -3.82563,-4.05842 -3.30944,-3.22257 -6.52325,-6.5504 -9.95907,-9.64109 -0.19439,-0.18763 -0.43939,-0.009 -0.65862,-0.0164 z"
   id="path11" /><path
   style="fill:#ff5555;stroke:#ff5555;stroke-width:0.380057;stroke-linecap:round;stroke-linejoin:round"
   d="m 54.538131,129.1749 c -3.727245,4.74159 -5.467003,10.86025 -5.200386,16.83144 0.0085,0.79995 -0.158179,2.49716 1.128387,2.24634 5.975998,-1.60767 11.986349,-3.10801 17.943585,-4.77313 0.870273,-0.87489 -0.664224,-1.74351 -1.108807,-2.42172 -3.8764,-4.0583 -7.93763,-7.93913 -11.909323,-11.90548 -0.355318,-0.20918 -0.508441,-0.20085 -0.853456,0.0225 z"
   id="path12" /><path
   style="fill:#ff5555;stroke:#ff5555;stroke-width:0.380057;stroke-linecap:round;stroke-linejoin:round"
   d="m 70.340846,149.72872 c -6.238695,1.64568 -12.555764,3.18561 -18.712733,5.01728 -0.660286,0.87971 0.67149,1.90751 0.932816,2.81366 2.802528,5.0059 7.301644,9.14338 12.629794,11.39597 1.423673,0.26351 1.115954,-1.77838 1.559621,-2.59432 1.43752,-5.31229 2.91658,-10.61378 4.318902,-15.93511 0.05253,-0.42624 -0.296209,-0.78753 -0.7284,-0.69748 z"
   id="path13" /><path
   style="fill:#ffffff;stroke:#ffffff;stroke-width:0.380057;stroke-linecap:round;stroke-linejoin:round"
   d="m 77.819206,152.04613 c -0.98638,0.97079 -0.88377,2.61305 -1.415865,3.85399 -1.329999,4.82864 -2.710811,9.64645 -3.922494,14.50509 0.211774,1.23241 1.924043,0.61407 2.815295,0.80803 5.920721,0.12128 12.011913,-1.59611 16.662693,-5.24423 0.291949,-1.17589 -1.526484,-1.81996 -2.09675,-2.74904 -3.860662,-3.71024 -7.510846,-7.66553 -11.599696,-11.12832 -0.135828,-0.0914 -0.293011,-0.0464 -0.443183,-0.0456 z"
   id="path14" /><path
   style="fill:#ffffff;stroke:#ffffff;stroke-width:0.760116;stroke-linecap:round;stroke-linejoin:round"
   d="M 35.76698,9.9766051 C 33.681943,26.587213 32.340983,43.363359 30.59871,60.042099 29.469397,71.239017 28.468906,82.476233 27.336878,93.656205 23.33167,100.30386 18.365555,106.43606 15.386773,113.66947 3.7691187,139.68246 7.9877915,172.04971 26.612868,193.8777 c 6.288078,7.76872 14.408035,13.76278 22.772514,19.1671 2.78462,1.53653 0.965348,6.26151 -2.084272,5.9275 -3.690864,0.1851 -5.329371,5.60523 -1.96404,7.41351 11.51485,0.8716 23.123766,0.34641 34.674351,0.5343 16.397599,-0.096 32.876269,0.21204 49.222989,-0.15369 2.60612,-1.39294 3.26399,-5.92023 0.24836,-7.16122 -8.90118,-0.92456 -17.92184,-0.2833 -26.86646,-0.49949 -13.557375,-0.205 -27.185332,0.44332 -40.695473,-0.52441 -3.250699,0.0864 -3.54564,-4.56226 -1.099273,-5.94811 2.957573,-0.85512 6.588274,-0.10383 9.797919,-0.35741 18.730941,-0.063 37.499107,0.12604 56.206817,-0.0945 17.3751,-10.11186 30.57262,-26.81141 36.34925,-45.89086 0.74581,-1.83688 1.19166,-4.69572 3.85304,-4.50643 6.83426,-0.82528 13.92422,-1.63418 20.07123,-5.05703 11.35712,-5.17183 20.45431,-14.33255 27.1697,-24.60521 12.98702,-20.44764 17.18775,-47.173227 7.73113,-69.821454 -5.79021,-14.230219 -19.20504,-25.916403 -34.99169,-27.294553 -13.23268,-1.405013 -26.30284,3.900383 -36.3516,12.173388 -1.94368,1.891327 -5.60814,3.732697 -7.33942,0.491823 C 142.55617,41.863768 142.26365,35.92036 141.24069,30.126868 138.15596,28.710855 134.37526,28.69666 131.0554,27.775631 99.471747,21.673844 67.900249,15.470378 36.24,9.7789346 L 35.826178,9.9518678 Z M 182.80935,42.984959 c 10.73712,-0.274166 21.12586,5.549973 27.01269,14.353166 9.73339,13.585398 10.42172,31.381599 7.24196,47.163455 -4.22579,18.33161 -15.61983,35.92138 -32.82067,44.71041 -4.99959,2.26864 -10.5714,4.24259 -16.12828,3.79041 -2.53487,-1.22743 -1.63158,-4.75001 -2.04907,-7.00083 0.0211,-9.33544 -1.09416,-18.77576 -4.55654,-27.5412 -3.19331,-8.53494 -7.92485,-16.41367 -13.38848,-23.696169 -1.51916,-9.766934 -2.16032,-19.627511 -3.20934,-29.453756 5.04717,-6.964933 11.54518,-13.05155 19.04014,-17.394994 5.74328,-3.228707 12.29186,-4.953114 18.85759,-4.930492 z M 106.58827,62.76934 c 9.34209,0.121266 18.73077,-0.175112 28.04594,0.365866 2.42743,1.448606 1.79027,4.957485 2.40694,7.323222 1.08858,9.154533 1.71248,18.416636 2.86384,27.5526 15.42851,17.042042 21.637,41.686482 15.87212,63.826322 -4.27343,17.40616 -15.8678,32.48643 -31.04122,42.17444 -24.800308,0 -49.600634,0 -74.400962,0 -12.126034,-7.93208 -22.298283,-18.94964 -27.783295,-32.37313 -4.197365,-9.48037 -5.72099,-19.86542 -5.178003,-30.16096 0.169509,-15.60666 6.920037,-30.68425 16.952038,-42.623752 1.516279,-3.052165 1.087147,-6.798819 1.753567,-10.113162 1.104714,-8.059921 1.132324,-16.299987 2.875144,-24.240095 1.476494,-2.840731 5.167872,-1.153864 7.749074,-1.610978 19.961596,-0.04064 39.923162,-0.123715 59.884817,-0.120373 z"
   id="path15" /><path
   style="fill:#ff5555;fill-opacity:1;stroke:#ff5555;stroke-width:0.592126;stroke-linecap:round;stroke-linejoin:round"
   d="m 132.53088,257.50105 c -2.11699,0.87543 -2.30856,3.71974 -3.02301,5.63043 -2.35202,9.02827 -5.28417,17.93886 -7.12792,27.08236 0.1219,2.58806 3.47271,2.32852 5.32647,2.27578 9.18189,0.16295 18.51941,-1.85753 26.29225,-6.89921 1.34603,-1.07326 3.94478,-2.00256 3.63741,-4.07067 -4.66009,-5.6308 -10.21037,-10.50579 -15.37523,-15.67942 -3.04528,-2.76618 -5.83616,-5.89237 -9.18909,-8.28015 -0.171,-0.0663 -0.35963,-0.083 -0.54088,-0.0591 z"
   id="path6"
   transform="scale(0.58750125)" /></svg>
