<?xml version="1.0" encoding="UTF-8" standalone="no"?>
<!-- Uploaded to: SVG Repo, www.svgrepo.com, Generator: SVG Repo Mixer Tools -->

<svg
   fill="#000000"
   height="800px"
   width="800px"
   version="1.1"
   id="Capa_1"
   viewBox="0 0 470 470"
   xml:space="preserve"
   sodipodi:docname="gingbeer.svg"
   inkscape:version="1.3 (0e150ed6c4, 2023-07-21)"
   inkscape:export-filename="gingbeer.png"
   inkscape:export-xdpi="96"
   inkscape:export-ydpi="96"
   xmlns:inkscape="http://www.inkscape.org/namespaces/inkscape"
   xmlns:sodipodi="http://sodipodi.sourceforge.net/DTD/sodipodi-0.dtd"
   xmlns="http://www.w3.org/2000/svg"
   xmlns:svg="http://www.w3.org/2000/svg"><defs
   id="defs5">&#10;	&#10;	&#10;	&#10;	&#10;	&#10;<filter
   inkscape:label="Jam Spread"
   inkscape:menu="Textures"
   inkscape:menu-tooltip="Glossy clumpy jam spread"
   style="color-interpolation-filters:sRGB;"
   id="filter13"
   x="-0.018011933"
   y="-0.006370966"
   width="1.0360239"
   height="1.0127419"><feGaussianBlur
     stdDeviation="1"
     in="SourceGraphic"
     result="result0"
     id="feGaussianBlur12" /><feTurbulence
     result="result1"
     numOctaves="7"
     seed="488"
     baseFrequency="0.017"
     type="turbulence"
     id="feTurbulence12" /><feComposite
     in="result0"
     in2="result1"
     operator="out"
     result="result2"
     id="feComposite12" /><feGaussianBlur
     stdDeviation="0.5"
     result="result5"
     id="feGaussianBlur13" /><feSpecularLighting
     in="result5"
     specularExponent="100"
     specularConstant="4"
     result="result4"
     surfaceScale="1.5"
     id="feSpecularLighting13"><feDistantLight
       azimuth="225"
       elevation="62"
       id="feDistantLight13" /></feSpecularLighting><feComposite
     operator="atop"
     in="result4"
     in2="result2"
     result="result91"
     id="feComposite13" /><feBlend
     mode="multiply"
     in2="result91"
     id="feBlend13" /></filter></defs><sodipodi:namedview
   id="namedview5"
   pagecolor="#ffffff"
   bordercolor="#000000"
   borderopacity="0.25"
   inkscape:showpageshadow="2"
   inkscape:pageopacity="0.0"
   inkscape:pagecheckerboard="0"
   inkscape:deskcolor="#d1d1d1"
   inkscape:zoom="1.01625"
   inkscape:cx="400"
   inkscape:cy="400"
   inkscape:window-width="1920"
   inkscape:window-height="1009"
   inkscape:window-x="1912"
   inkscape:window-y="-8"
   inkscape:window-maximized="1"
   inkscape:current-layer="Capa_1" />&#10;<path
   d="m 220,369.523 c -4.135,0 -7.5,3.365 -7.5,7.5 0,4.135 3.365,7.5 7.5,7.5 4.135,0 7.5,-3.365 7.5,-7.5 0,-4.135 -3.365,-7.5 -7.5,-7.5 z"
   id="path1"
   style="display:inline" /><path
   d="m 250,390.523 c -4.135,0 -7.5,3.365 -7.5,7.5 0,4.135 3.365,7.5 7.5,7.5 4.135,0 7.5,-3.365 7.5,-7.5 0,-4.135 -3.365,-7.5 -7.5,-7.5 z"
   id="path2" /><path
   d="m 270.39247,232.2221 c -2.9274,2.234 -4.39634,3.356 -8.18918,3.356 -3.79284,0 -5.26178,-1.122 -8.1892,-3.356 -3.6713,-2.804 -8.70153,-6.644 -18.00657,-6.644 -9.30504,0 -14.33318,3.84 -18.00553,6.644 -2.92636,2.234 -4.3953,3.356 -8.18605,3.356 -3.79075,0 -5.26074,-1.122 -8.18605,-3.356 -3.67235,-2.804 -8.70154,-6.644 -18.00553,-6.644 -4.33977,0 -7.85811,3.357 -7.85811,7.5 l -0.0126,199.987 c 0,2.402 1.20596,4.66 3.24382,6.07 0.52598,0.364 1.09071,0.661 1.68059,0.888 0.95764,0.381 1.98653,0.578 3.0259,0.578 0.002,0 104.67097,-0.023 104.67097,-0.023 3.31926,-0.001 6.188,-1.974 7.33004,-4.797 0.3709,-0.886 0.56369,-1.833 0.56369,-2.791 l -0.0115,-199.912 c 0,-4.143 -3.51833,-7.5 -7.8581,-7.5 -9.30504,0 -14.33423,3.84 -18.00659,6.644 z m -78.92153,193.377 0.0115,-181.916 c 0.10792,0.082 0.21688,0.165 0.32795,0.251 3.6713,2.804 8.70049,6.644 18.00553,6.644 9.30399,0 14.33318,-3.84 18.00553,-6.644 2.92635,-2.234 4.3953,-3.356 8.18709,-3.356 3.79285,0 5.26179,1.122 8.1892,3.356 3.67235,2.804 8.70153,6.644 18.00657,6.644 9.30504,0 14.33528,-3.84 18.00659,-6.644 0.11315,-0.086 0.22317,-0.17 0.33213,-0.253 l 0.0115,181.898 z"
   id="path4"
   style="stroke-width:1.0236" /><path
   d="m 279.123,159.864 -8.867,-109.513 7.548,-7.548 c 2.009,-2.009 2.71,-4.98 1.812,-7.676 l -10,-30 C 268.595,2.065 265.729,0 262.5,0 h -55 c -3.228,0 -6.094,2.065 -7.115,5.128 l -10,30 c -0.898,2.695 -0.197,5.667 1.812,7.676 0,0 4.589,4.589 7.548,7.547 l -8.868,109.514 c -26.49,14.308 -43.377,42.35 -43.377,72.636 v 200 c 0,20.678 16.822,37.5 37.5,37.5 h 100 c 20.678,0 37.5,-16.822 37.5,-37.5 v -200 c 0,-30.287 -16.887,-58.329 -43.377,-72.637 z M 307.5,432.5 c 0,12.406 -10.094,22.5 -22.5,22.5 H 185 c -12.407,0 -22.5,-10.094 -22.5,-22.5 v -200 c 0,-25.985 15.197,-49.954 38.717,-61.063 2.426,-1.146 4.056,-3.501 4.272,-6.176 L 214.417,55 H 232.5 c 4.143,0 7.5,-3.357 7.5,-7.5 0,-4.143 -3.357,-7.5 -7.5,-7.5 H 210.607 L 206.081,35.475 212.906,15 h 44.189 l 6.824,20.475 -6.723,6.722 c -1.556,1.556 -2.35,3.716 -2.172,5.909 l 9.486,117.156 c 0.217,2.675 1.846,5.03 4.272,6.176 23.52,11.108 38.717,35.077 38.717,61.063 V 432.5 Z"
   id="path5"
   style="fill:#000000;fill-opacity:1" />&#10;<text
   xml:space="preserve"
   style="font-size:73.7997px;fill:#ffeeaa;stroke:#1a1a1a;stroke-width:1.68224;stroke-linecap:round;stroke-linejoin:round"
   x="190.1512"
   y="362.64642"
   id="text6"
   transform="scale(1.0813107,0.92480358)"><tspan
     sodipodi:role="line"
     id="tspan6"
     style="font-style:normal;font-variant:normal;font-weight:normal;font-stretch:normal;font-family:sans-serif;-inkscape-font-specification:sans-serif;fill:#1a1a1a;stroke-width:1.68224"
     x="190.1512"
     y="362.64642">G</tspan></text><path
   style="fill:#ffeeaa;fill-opacity:1;stroke:#ffeeaa;stroke-width:1.67478;stroke-linecap:round;stroke-linejoin:round;filter:url(#filter13)"
   d="m 308.70971,773.32143 c -14.3017,-2.3818 -26.4828,-13.68732 -30.22425,-28.05172 -2.17758,-8.36031 -2.23876,-351.02797 -0.0652,-365.44601 5.60157,-37.15802 28.09688,-68.47661 62.10174,-86.45975 3.52844,-1.86598 6.68094,-4.37396 7.7297,-6.14937 1.49988,-2.5391 2.95325,-17.48902 9.49098,-97.62792 4.24594,-52.04634 7.74175,-94.703834 7.76846,-94.79443 0.0267,-0.0906 7.68694,-0.311997 17.02274,-0.492005 14.74351,-0.284275 17.39234,-0.58023 20.1563,-2.252071 6.13149,-3.708769 9.88755,-7.624603 5.83585,-13.636914 l 25.48493,-0.615513 c -0.32382,1.861794 3.13699,49.069523 7.69066,104.906063 7.01994,86.07753 8.54854,101.97657 10.04862,104.51598 1.04673,1.77198 4.20246,4.28183 7.7278,6.14618 16.01897,8.47147 32.56965,22.73228 42.12262,36.29475 9.91677,14.07894 17.3544,32.75386 19.97913,50.165 2.17352,14.41804 2.11233,357.0857 -0.0652,365.44601 -3.85611,14.80461 -15.84649,25.63679 -31.12153,28.11537 -7.73596,1.25526 -174.11378,1.19697 -181.6833,-0.0637 z m 189.76831,-25.20378 c 1.9366,-1.20442 4.03992,-3.32858 4.67405,-4.72035 0.86745,-1.90384 1.15297,-45.77569 1.15297,-177.16039 V 391.60702 l -3.3332,-3.63716 c -3.13918,-3.42544 -3.73818,-3.66004 -10.28992,-4.03025 -9.50513,-0.53709 -18.20237,2.20033 -27.63403,8.69769 -9.8229,6.7669 -12.12277,7.85842 -16.50456,7.8331 -4.46587,-0.0258 -9.44693,-2.35352 -17.80007,-8.31819 -9.02275,-6.44281 -17.48988,-8.77595 -29.58276,-8.15165 -12.6492,0.65302 -16.07634,2.04986 -30.97509,12.62487 -4.21222,2.9898 -5.46661,3.37457 -11.00134,3.37457 -5.80909,0 -6.64849,-0.29537 -11.97385,-4.2134 -3.14975,-2.31737 -8.95255,-5.80557 -12.8951,-7.75157 -6.15357,-3.03732 -8.38222,-3.59953 -15.74416,-3.97168 -7.46042,-0.37713 -8.99955,-0.16602 -11.83313,1.62305 -6.51549,4.11378 -6.09084,-8.54816 -6.09084,181.61253 0,185.42069 -0.26716,175.36219 4.779,179.9289 1.11566,1.00965 3.48571,2.18548 5.2668,2.61296 1.78108,0.42747 44.41914,0.70736 94.75124,0.62197 l 91.51292,-0.15526 z"
   id="path7"
   transform="scale(0.5875)"
   sodipodi:nodetypes="sscssssssccsssssssssssscsssssssssssssssscs" /><path
   style="fill:#d4aa00;fill-opacity:1;stroke:#d4aa00;stroke-width:2.3685;stroke-linecap:round;stroke-linejoin:round"
   d="M 326.33021,569.90217 V 416.17229 l 5.11012,3.46782 c 7.99802,5.4276 18.99052,8.06427 29.83155,7.15539 9.83609,-0.82462 16.45048,-3.54761 28.12549,-11.5786 9.82472,-6.75822 15.73954,-8.35502 27.45692,-0.33195 11.83938,8.10662 21.21836,12.93853 33.41239,11.91622 8.53955,-0.71592 21.16729,-5.16263 22.97722,-8.09114 0.41809,-0.67651 3.08894,-3.49136 3.80915,-3.49136 0.81029,0 -0.43003,60.61488 -0.43003,155.33736 v 153.076 h -75.1464 -75.14641 z m 109.1169,116.04988 c 4.06638,-4.83259 4.54028,-9.35117 1.58093,-15.07392 -6.29091,-12.16528 -24.41862,-6.90779 -24.41862,7.08202 0,7.77959 4.77208,12.27348 13.03324,12.27348 5.21683,0 6.77391,-0.67996 9.80445,-4.28158 z m -51.01759,-35.40964 c 4.40852,-5.07377 4.27518,-13.56362 -0.28465,-18.12343 -2.58775,-2.58776 -4.86472,-3.40502 -9.3933,-3.3715 -8.58284,0.0636 -13.63135,4.9434 -13.63135,13.17595 0,11.83308 15.46136,17.35116 23.3093,8.31898 z m 47.6623,-79.07688 7.6538,-1.60531 0.38257,-22.65413 0.38256,-22.65413 -18.47337,0.38853 -18.47336,0.38853 -0.42415,6.6101 -0.42415,6.6101 h 10.51325 10.51325 v 10.37395 10.37393 l -5.04531,0.94651 c -2.77492,0.52059 -9.68531,0.59558 -15.35643,0.16668 -19.0067,-1.43747 -28.12534,-9.99182 -29.38265,-27.56436 -1.1754,-16.42774 6.50312,-28.88532 20.3638,-33.03808 7.4284,-2.2256 20.31556,-2.02195 29.89191,0.47237 10.44882,2.72157 10.24536,2.75387 12.71314,-2.01829 3.4876,-6.74426 2.77863,-8.16046 -5.18276,-10.35278 -16.68914,-4.59568 -36.93813,-3.85586 -50.2134,1.83458 -9.04372,3.87659 -18.13823,12.76548 -21.82199,21.32862 -3.57417,8.30838 -4.34053,24.35817 -1.61758,33.87679 3.36866,11.77584 12.90347,21.3755 25.58009,25.75407 8.64834,2.98719 35.77677,3.4143 48.42078,0.76232 z"
   id="path8"
   transform="scale(0.5875)"
   sodipodi:nodetypes="ccssssssssccccssssssssssscccccccccccssssssssssss" /><path
   style="fill:#aa8800;fill-opacity:1;stroke:#aa8800;stroke-width:1.67478;stroke-linecap:round;stroke-linejoin:round"
   d="m 408.85609,78.228782 c 0,-2.438685 -0.21114,-2.815111 -3.58756,-6.396064 l -3.24733,-3.444034 -21.52599,-0.298114 -21.52599,-0.298113 -3.69694,-3.78601 -3.69694,-3.78601 5.74109,-17.31809 5.7411,-17.318091 H 400 436.94247 l 5.74569,17.331956 5.74569,17.331956 -6.75075,6.995324 c -3.71291,3.847429 -6.83174,7.162251 -6.93073,7.366271 -0.099,0.204021 -5.68832,0.437556 -12.42072,0.518968 -11.98352,0.144911 -12.98777,0.445585 -11.1758,3.346054 0.49142,0.786619 0.21541,1.230012 -0.76567,1.230012 -0.84375,0 -1.53409,-0.664207 -1.53409,-1.476015 z"
   id="path13"
   transform="scale(0.5875)" /></svg>
