<?xml version="1.0" encoding="UTF-8" standalone="no"?>
<!-- Uploaded to: SVG Repo, www.svgrepo.com, Generator: SVG Repo Mixer Tools -->

<svg
   fill="#000000"
   height="400"
   width="400"
   version="1.1"
   id="Capa_1"
   viewBox="0 0 235.0005 235.0005"
   xml:space="preserve"
   sodipodi:docname="redlimo.svg"
   inkscape:version="1.3 (0e150ed6c4, 2023-07-21)"
   xmlns:inkscape="http://www.inkscape.org/namespaces/inkscape"
   xmlns:sodipodi="http://sodipodi.sourceforge.net/DTD/sodipodi-0.dtd"
   xmlns="http://www.w3.org/2000/svg"
   xmlns:svg="http://www.w3.org/2000/svg"><defs
   id="defs5">&#10;	&#10;	&#10;	&#10;	&#10;	&#10;</defs><sodipodi:namedview
   id="namedview5"
   pagecolor="#ffffff"
   bordercolor="#000000"
   borderopacity="0.25"
   inkscape:showpageshadow="2"
   inkscape:pageopacity="0.0"
   inkscape:pagecheckerboard="0"
   inkscape:deskcolor="#d1d1d1"
   inkscape:zoom="1.01625"
   inkscape:cx="400"
   inkscape:cy="400"
   inkscape:window-width="1920"
   inkscape:window-height="1009"
   inkscape:window-x="1912"
   inkscape:window-y="-8"
   inkscape:window-maximized="1"
   inkscape:current-layer="Capa_1" />&#10;<path
   d="m 190.62534,44.57433 c -3.09406,-0.981997 -6.34197,-1.479589 -9.65327,-1.479589 -13.28898,0 -26.67477,7.75685 -36.72568,21.282138 -0.54017,0.726122 -0.79035,1.625594 -0.70384,2.525066 l 2.5878,26.786888 c 0.0702,0.72368 0.35537,1.410735 0.81935,1.972784 11.23889,13.612203 17.42847,30.820843 17.42847,48.456263 0,1.60263 -0.0531,3.25363 -0.15826,4.90558 -0.0668,1.05184 0.32588,2.08169 1.07691,2.8249 0.69351,0.68607 1.62984,1.06842 2.60205,1.06842 0.0816,0 0.16367,-0.003 0.24576,-0.008 19.02343,-1.26327 37.60695,-18.62035 45.19096,-42.20927 4.64821,-14.456015 4.74308,-29.362741 0.26787,-41.97342 C 209.25605,56.473875 201.095,47.897148 190.62534,44.574668 Z m 15.68755,63.89574 c -6.11686,19.02466 -19.946,33.42452 -34.56697,36.5546 0.003,-0.30373 0.005,-0.606 0.005,-0.90679 0,-18.94849 -6.52185,-37.44823 -18.38741,-52.22555 l -2.34453,-24.269635 c 8.42598,-10.798062 19.53952,-17.203261 29.95267,-17.203261 2.54897,0 5.04143,0.380884 7.40953,1.132397 8.21854,2.608079 14.70649,9.572396 18.26895,19.609667 3.94486,11.113999 3.82493,24.363879 -0.33766,37.308572 z"
   id="path1"
   style="stroke-width:0.48991" /><path
   d="m 227.51026,63.854385 c -5.91925,-16.67979 -17.42502,-28.482798 -32.39842,-33.235547 -4.5558,-1.445406 -9.31166,-2.178364 -14.13682,-2.178364 -11.18285,0 -22.56427,3.970472 -32.65007,11.294676 l -1.19289,-12.347966 c -0.15582,-1.615828 -1.36394,-2.936713 -2.96825,-3.245328 L 34.116056,2.9573816 c -1.01841,-0.1963017 -2.07614,0.04346 -2.908268,0.6616639 -0.832128,0.618204 -1.362959,1.5567412 -1.462736,2.5836631 L 21.467521,91.891841 C 9.6014705,106.66917 3.080107,125.1689 3.080107,144.11739 c 0,27.97153 14.101441,54.00495 37.225051,69.50108 -2.018142,1.99133 -3.269037,4.74932 -3.269037,7.79151 0,6.05801 4.961309,10.98704 11.05899,10.98704 h 78.641699 c 6.09769,0 11.059,-4.92903 11.059,-10.98704 0,-3.04317 -1.25188,-5.80213 -3.27101,-7.79348 16.28965,-10.93282 28.37835,-27.31182 33.87542,-46.05375 11.37798,-0.5894 22.64143,-5.1268 32.72772,-13.21277 11.86113,-9.50843 21.18559,-23.42779 26.25502,-39.19443 5.61945,-17.478667 5.66517,-35.698594 0.1273,-51.301165 z m -7.15098,49.073475 c -4.63593,14.41696 -13.11007,27.10381 -23.86186,35.72253 -9.50976,7.62355 -20.10279,11.65359 -30.63488,11.65408 l -0.27525,-0.004 c -1.70308,0 -3.17467,1.13484 -3.59097,2.75749 -5.09991,19.88216 -18.28813,37.09128 -36.24597,47.36489 H 62.840431 c -2.036329,0 -3.686329,1.63927 -3.686329,3.66235 0,2.02308 1.65,3.66234 3.686329,3.66234 h 63.895409 c 2.03387,0 3.68731,1.64268 3.68731,3.66235 0,2.01966 -1.65344,3.66234 -3.68634,3.66234 H 48.095111 c -2.032888,0 -3.68633,-1.64268 -3.68633,-3.66234 0,-2.01967 1.653442,-3.66235 3.68633,-3.66235 1.677526,0 3.143703,-1.12556 3.567384,-2.73796 0.422699,-1.61339 -0.303262,-3.30637 -1.767472,-4.12039 -24.328795,-13.52334 -39.442256,-39.10897 -39.442256,-66.7719 0,-17.63541 6.189594,-34.84404 17.428476,-48.456251 0.463986,-0.562049 0.749063,-1.249104 0.819349,-1.972784 l 7.995896,-82.77286 103.360762,19.896794 1.5866,16.421961 c 0.13319,1.376553 1.03561,2.561689 2.33368,3.063186 1.29563,0.500521 2.76819,0.233413 3.80331,-0.692428 9.9703,-8.924406 21.75918,-13.839762 33.19467,-13.839762 4.06282,0 8.06422,0.616251 11.89358,1.831173 12.72128,4.037859 22.55493,14.22797 27.68826,28.693749 5.00653,14.106381 4.93624,30.669464 -0.19807,46.637772 z"
   id="path2"
   style="stroke-width:0.48991" /><path
   d="m 75.429002,122.00756 c 1.476989,5.30063 4.299244,10.30585 8.485441,14.4648 6.26676,6.2255 14.597866,9.65444 23.459807,9.65444 8.86144,0 17.19254,-3.42845 23.45931,-9.65444 0.69106,-0.68706 1.07936,-1.61827 1.07936,-2.59001 0,-0.97174 -0.3883,-1.90246 -1.07936,-2.59001 L 89.127404,89.857532 c -1.440126,-1.429781 -3.773818,-1.429781 -5.213453,0 -8.587183,8.5318 -11.466944,20.614128 -8.652554,31.533778 0.01818,0.10157 0.03833,0.20314 0.06586,0.3047 0.02948,0.10694 0.06439,0.20998 0.101741,0.31155 z m 8.235262,1.26131 18.497026,-4.92414 -4.95984,18.38936 c -2.976589,-1.26864 -5.714303,-3.09785 -8.073554,-5.44175 -2.391691,-2.37564 -4.209298,-5.10775 -5.463632,-8.02347 z m 23.709986,15.53323 c -1.02726,0 -2.04371,-0.0664 -3.04885,-0.18311 l 4.95689,-18.37814 13.54751,13.45985 c -4.43687,3.31076 -9.80712,5.1014 -15.45555,5.1014 z m -20.667044,-40.990442 13.546034,13.457902 -18.488665,4.9217 c -0.75791,-6.3842 0.887669,-12.99938 4.942631,-18.379602 z"
   id="path3"
   style="stroke-width:0.48991" /><path
   d="m 52.634703,120.93425 c -8.587182,8.5318 -11.466944,20.61412 -8.652553,31.53377 0.01818,0.10157 0.03833,0.20314 0.06586,0.30471 0.029,0.10695 0.0639,0.21046 0.101252,0.31252 1.47699,5.30014 4.299243,10.30486 8.484948,14.46334 6.266761,6.2255 14.597867,9.65394 23.459803,9.65394 8.861447,0 17.192553,-3.42844 23.459314,-9.65394 1.439643,-1.43075 1.439643,-3.74926 0,-5.17954 l -41.706152,-41.4348 c -1.438651,-1.42979 -3.772344,-1.42979 -5.212471,0 z m 2.792764,7.95363 13.546034,13.45791 -18.488666,4.9217 c -0.757417,-6.38419 0.887669,-12.99937 4.942632,-18.37961 z m -3.042942,25.45721 18.49702,-4.92414 -4.959833,18.38938 c -2.976589,-1.26864 -5.714304,-3.09738 -8.073555,-5.44128 -2.391199,-2.37613 -4.208805,-5.10823 -5.463632,-8.02396 z M 76.095,169.87736 c -1.027258,0 -2.043702,-0.0664 -3.04835,-0.18313 l 4.956393,-18.37765 13.547509,13.45985 c -4.436867,3.31076 -9.807604,5.10093 -15.455552,5.10093 z"
   id="path4"
   style="stroke-width:0.48991" /><path
   d="m 139.11355,97.718879 -3.04441,-31.517175 c -0.18137,-1.878539 -1.77043,-3.312226 -3.66963,-3.312226 H 42.431926 c -1.899198,0 -3.488252,1.434176 -3.669619,3.312226 l -3.043926,31.517175 -2.136596,2.587571 c -8.505101,10.30096 -13.800146,22.77589 -15.313998,36.07557 -0.229045,2.0099 1.225336,11.2248 3.248393,11.45187 2.020601,0.22999 3.536005,13.42976 4.077081,-10.62857 1.354112,-11.89335 6.08736,-23.04641 13.689064,-32.25355 l 2.848305,-3.44993 c 0.463986,-0.56205 0.749062,-1.24911 0.819347,-1.972298 L 45.78157,70.21466 h 83.26879 l 2.83209,29.314882 c 0.0702,0.723678 0.35535,1.410738 0.81934,1.972778 l 2.84831,3.44945 c 9.08213,11.00022 14.08374,24.9103 14.08374,39.16659 0,12.84312 -3.92275,25.15154 -11.34553,35.59509 -4.54944,6.40079 -10.15659,11.80007 -16.67845,16.06158 H 53.222059 c -6.522838,-4.262 -12.129991,-9.66079 -16.678431,-16.06158 -6.020023,-8.47028 -9.809079,-18.38499 -10.957739,-28.67374 -0.770186,-18.51802 -2.161206,-19.85107 -4.186721,-19.62793 -2.02355,0.22267 -4.301438,2.07209 -3.140721,20.43462 1.285301,11.51588 5.525564,22.61328 12.262209,32.09192 5.312738,7.47509 11.920608,13.72988 19.641258,18.59203 0.590304,0.3716 1.274978,0.56888 1.973906,0.56888 h 70.56029 c 0.69893,0 1.38311,-0.19728 1.97391,-0.56888 7.71967,-4.86117 14.32753,-11.11694 19.64125,-18.59203 8.30505,-11.68678 12.69524,-25.45575 12.69524,-39.81996 0,-15.94586 -5.59586,-31.50545 -15.75637,-43.8124 z"
   id="path5"
   sodipodi:nodetypes="ccssccccccccccccccssccccccccssccscc"
   style="stroke-width:0.48991" />&#10;<path
   style="fill:#ffff00;stroke:#ffff00;stroke-width:0.374307;stroke-linecap:round;stroke-linejoin:round"
   d="m 55.036318,128.75733 c -3.66052,4.68305 -5.369133,10.72615 -5.107288,16.62359 0.0084,0.79006 -0.155348,2.46632 1.108185,2.21861 5.869016,-1.58782 11.771769,-3.06964 17.622358,-4.7142 0.854693,-0.86408 -0.652333,-1.72198 -1.088956,-2.39182 -3.807006,-4.00817 -7.795531,-7.84108 -11.696121,-11.75845 -0.348958,-0.2066 -0.49934,-0.19836 -0.838178,0.0223 z"
   id="path6" /><path
   style="fill:#ffff00;stroke:#ffff00;stroke-width:0.374307;stroke-linecap:round;stroke-linejoin:round"
   d="m 70.556131,149.05732 c -6.12701,1.62538 -12.33099,3.14629 -18.377736,4.95534 -0.648464,0.86885 0.659469,1.88396 0.916116,2.77892 2.752357,4.94407 7.170931,9.03045 12.403696,11.25522 1.398185,0.26026 1.095975,-1.75642 1.531699,-2.56228 1.411785,-5.2467 2.864367,-10.4827 4.241584,-15.73832 0.05158,-0.42097 -0.290905,-0.7778 -0.715359,-0.68888 z"
   id="path7" /><path
   style="fill:#ffff00;stroke:#ffff00;stroke-width:0.374307;stroke-linecap:round;stroke-linejoin:round"
   d="m 77.900614,151.34613 c -0.968724,0.9588 -0.86795,2.58077 -1.390519,3.80638 -1.30619,4.76902 -2.662283,9.52733 -3.852274,14.32597 0.207983,1.2172 1.889597,0.60649 2.764894,0.79805 5.81473,0.1198 11.796876,-1.57639 16.364396,-5.17947 0.286723,-1.16136 -1.499157,-1.79747 -2.059213,-2.71508 -3.791548,-3.66443 -7.376387,-7.57087 -11.392038,-10.9909 -0.133396,-0.0903 -0.287765,-0.0459 -0.435246,-0.0449 z"
   id="path8" /><path
   style="fill:#ffff00;stroke:#ffff00;stroke-width:0.374307;stroke-linecap:round;stroke-linejoin:round"
   d="m 86.293565,97.572009 c -3.792654,5.231921 -5.823855,11.855511 -4.95277,18.294181 0.277093,1.33919 1.905921,0.27934 2.747691,0.20056 5.300314,-1.41661 10.614159,-2.79414 15.880046,-4.33077 0.998148,-0.78599 -0.563556,-1.65641 -0.986304,-2.2914 -3.946703,-4.05421 -7.934423,-8.13604 -12.05546,-11.976391 -0.218731,-0.226319 -0.421725,0.05981 -0.633203,0.10382 z"
   id="path9" /><path
   style="fill:#ffff00;stroke:#ffff00;stroke-width:0.374307;stroke-linecap:round;stroke-linejoin:round"
   d="m 101.71943,118.11562 c -6.070873,1.45691 -12.127351,3.01276 -18.126554,4.73388 -0.872918,0.82506 0.468621,1.93175 0.738161,2.7786 2.007757,3.68317 5.007353,6.83215 8.470561,9.19889 1.34675,0.75166 2.631146,1.93015 4.197339,2.11242 1.136196,-0.75609 1.05491,-2.45705 1.577814,-3.61662 1.313454,-4.89208 2.806059,-9.76645 3.812359,-14.72294 -0.12431,-0.30079 -0.318,-0.52978 -0.66968,-0.48423 z"
   id="path10" /><path
   style="fill:#ffff00;fill-opacity:1;stroke:#ffff00;stroke-width:0.374307;stroke-linecap:round;stroke-linejoin:round"
   d="m 109.03461,120.12742 c -0.95083,1.88794 -1.18809,4.12783 -1.86849,6.14478 -1.0262,4.08753 -2.35609,8.13991 -3.15883,12.26072 0.74933,1.03361 2.36847,0.57573 3.48799,0.71593 4.35721,-0.0977 8.70711,-1.08635 12.49721,-3.27467 1.11883,-0.6767 2.54471,-1.1308 3.22689,-2.30016 -0.8922,-1.56208 -2.57438,-2.62857 -3.75715,-4.0083 -3.25018,-3.18277 -6.40648,-6.4695 -9.78078,-9.52204 -0.19091,-0.1853 -0.43152,-0.009 -0.64684,-0.0162 z"
   id="path13" /><path
   style="fill:#ff5555;fill-opacity:1;stroke:#ff5555;stroke-width:0.374307;stroke-linecap:round;stroke-linejoin:round"
   d="m 45.480695,70.010847 c -0.727051,3.84664 -0.823428,7.849033 -1.300442,11.75513 -0.653003,6.219715 -1.0922,12.481231 -1.991925,18.659543 -3.562059,4.86403 -7.606333,9.44 -10.309468,14.87247 -4.447958,8.63501 -7.144268,18.28532 -6.923533,28.03218 -0.135536,5.5366 0.278696,11.10561 1.805408,16.45322 3.821055,14.75063 13.35059,27.96308 26.152086,36.30872 22.920311,0.0984 45.868212,0.022 68.799129,0.0531 8.97688,-5.61869 16.2445,-13.86096 21.19958,-23.17108 8.10566,-15.03415 9.35846,-33.42205 3.61601,-49.46923 -2.72276,-8.05884 -7.48406,-15.24898 -12.96489,-21.71174 -1.54274,-1.44375 -1.08965,-3.742811 -1.48792,-5.622034 -0.92005,-8.639803 -1.69277,-17.341365 -2.53568,-25.96879 -0.92307,-0.812322 -2.58997,-0.160625 -3.79911,-0.37052 -26.613321,0 -53.226628,0 -79.839944,0 -0.139767,0.05966 -0.279535,0.119303 -0.419301,0.178961 z m 41.221837,19.280612 c 1.850783,0.237998 2.911767,2.079446 4.296451,3.141647 13.210397,12.925364 26.369447,25.902994 39.299427,39.104954 1.70512,1.41138 1.17208,4.14388 -0.53469,5.32303 -7.83848,7.37795 -19.56726,10.49175 -30.061076,7.86694 -11.162015,-2.54369 -20.642616,-11.52402 -23.718805,-22.58566 -1.428901,-4.76201 -1.463109,-9.78661 -0.786074,-14.69672 1.241876,-6.49962 4.359657,-12.812274 9.219065,-17.337742 0.641009,-0.517846 1.438946,-0.903915 2.285702,-0.816449 z M 55.282388,120.3342 c 1.944456,0.13396 2.936088,2.13809 4.368257,3.18963 12.74492,12.42886 25.380692,24.98683 37.874465,37.66469 1.087856,1.35226 3.22891,2.6389 2.50763,4.66923 -1.196678,2.35254 -3.640439,3.75185 -5.68364,5.30887 -8.32419,5.66169 -19.350676,7.13092 -28.825895,3.80141 -10.547377,-3.4765 -18.975931,-12.74473 -21.280166,-23.55126 -2.426347,-10.60462 0.782455,-22.57656 8.816566,-30.15008 0.62903,-0.50881 1.382688,-0.9635 2.222783,-0.93249 z"
   id="path14" /><path
   style="fill:#ffffff;fill-opacity:1;stroke:#ffffff;stroke-width:0.374307;stroke-linecap:round;stroke-linejoin:round"
   d="m 36.664991,10.72877 c -0.783883,2.501625 -0.621552,5.256536 -1.026247,7.854753 -2.528797,25.219741 -4.773665,50.492922 -7.434796,75.682857 -1.762828,3.097086 -4.292653,5.77599 -6.097705,8.88931 -11.825416,18.3333 -15.1014292,41.79744 -8.786886,62.64398 5.371558,18.13766 17.727828,34.15128 34.027299,43.92774 1.634058,1.0598 4.127448,2.01281 4.045651,4.35157 0.152531,1.96848 -1.727926,3.28107 -3.53197,3.37327 -2.601119,0.18777 -4.503616,3.08358 -3.416481,5.4934 0.544562,1.5101 2.104303,2.47637 3.708658,2.25283 21.18006,0.29942 42.364692,0.11037 63.546586,0.17344 5.35374,-0.0357 10.72661,0.076 16.0684,-0.0518 2.0843,-0.7411 3.52999,-3.10972 2.69294,-5.2485 -0.60571,-1.6301 -2.31549,-2.96418 -4.12365,-2.57143 -21.09967,-0.0584 -42.231062,0.13502 -63.31158,-0.16492 -2.396322,0.33156 -4.270731,-2.50162 -3.193841,-4.61771 0.588042,-1.454 2.163291,-2.2543 3.702613,-1.92576 20.846069,-0.0709 41.692138,-0.14184 62.538218,-0.21277 10.39047,-5.96285 19.27028,-14.50435 25.94876,-24.40023 4.75558,-7.03428 8.01248,-14.94796 10.35822,-23.06534 0.20706,-1.55785 1.72923,-2.33414 3.17375,-2.37342 6.56057,-0.3096 13.1423,-1.53673 19.08894,-4.39839 15.3131,-7.08287 26.71887,-20.8046 33.23698,-36.05663 3.53762,-8.40012 5.92684,-17.36036 6.47974,-26.467359 0.21437,-6.492182 0.2579,-13.063652 -1.26194,-19.423521 -2.56312,-12.238877 -8.73976,-24.241733 -19.17459,-31.617738 -9.61195,-6.937079 -22.40454,-9.009114 -33.81164,-5.85356 -8.52724,2.197158 -16.13214,6.949616 -22.79728,12.560717 -1.91497,1.711452 -5.30023,0.136284 -5.28632,-2.394558 -0.66947,-5.380037 -1.02194,-10.80591 -1.66472,-16.199753 -0.87912,-0.832735 -2.4402,-0.559855 -3.56695,-0.982564 C 103.54676,23.426775 70.275759,17.060002 37.014481,10.644855 l -0.214466,0.05149 z M 181.17412,43.527301 c 10.73153,-0.320639 20.97459,5.948203 26.83422,14.739296 7.52016,11.185004 9.51371,25.233228 8.03158,38.365058 -1.98341,16.789155 -9.7709,33.066985 -22.49874,44.441815 -7.21196,6.36792 -16.32972,11.13698 -26.11788,11.48857 -2.00089,-0.2609 -3.19447,-2.37095 -2.82652,-4.25909 0.95254,-17.85303 -4.53231,-35.99508 -15.41768,-50.261277 -0.99237,-1.570385 -2.77931,-2.911081 -2.68299,-4.947351 -0.94037,-8.815511 -1.92373,-17.657411 -2.5262,-26.496566 -0.059,-2.059382 1.79458,-3.465323 2.87479,-5.001897 5.54263,-6.610695 12.45108,-12.282102 20.54903,-15.447843 4.40338,-1.811026 9.03754,-2.736969 13.78039,-2.620715 z M 63.120292,63.19109 c 23.45139,0.01216 46.902748,0.05485 70.354128,0.0822 1.23233,0.618425 2.25386,1.731114 2.15767,3.191613 1.3022,10.436451 2.02537,20.990429 3.25016,31.432486 7.32521,8.532871 13.05197,18.559941 15.69694,29.469351 4.10853,16.45044 2.03307,34.36593 -6.12276,49.30526 -5.53626,10.20401 -13.68344,18.88211 -23.40643,25.26337 -1.79329,1.22218 -4.05488,0.53224 -6.08824,0.77467 -22.456284,0.16196 -44.913632,0.0647 -67.370362,0.0992 -4.170694,-2.01367 -7.7354,-5.15833 -11.209926,-8.19545 -12.008467,-10.87368 -19.75968,-26.22567 -21.7241,-42.1947 -0.363742,-5.946 -0.491063,-12.0325 0.168824,-17.94201 1.915313,-12.50062 7.024338,-24.56684 15.271324,-34.28286 0.935615,-1.184887 2.150384,-2.321861 2.008982,-3.970458 1.233686,-10.23155 1.875095,-20.549439 3.185058,-30.753662 0.507588,-1.814688 2.481336,-2.319629 4.097361,-2.170214 6.575737,-0.140044 13.154501,-0.09215 19.731371,-0.108747 z"
   id="path15" /></svg>
