<?xml version="1.0" encoding="UTF-8" standalone="no"?>
<!-- Uploaded to: SVG Repo, www.svgrepo.com, Generator: SVG Repo Mixer Tools -->

<svg
   fill="#000000"
   height="400"
   width="400"
   version="1.1"
   id="Capa_1"
   viewBox="0 0 235.0005 235.0005"
   xml:space="preserve"
   sodipodi:docname="yellowlimo.svg"
   inkscape:version="1.3 (0e150ed6c4, 2023-07-21)"
   xmlns:inkscape="http://www.inkscape.org/namespaces/inkscape"
   xmlns:sodipodi="http://sodipodi.sourceforge.net/DTD/sodipodi-0.dtd"
   xmlns="http://www.w3.org/2000/svg"
   xmlns:svg="http://www.w3.org/2000/svg"><defs
   id="defs5">&#10;	&#10;	&#10;	&#10;	&#10;	&#10;</defs><sodipodi:namedview
   id="namedview5"
   pagecolor="#ffffff"
   bordercolor="#000000"
   borderopacity="0.25"
   inkscape:showpageshadow="2"
   inkscape:pageopacity="0.0"
   inkscape:pagecheckerboard="0"
   inkscape:deskcolor="#d1d1d1"
   inkscape:zoom="2.0325"
   inkscape:cx="200"
   inkscape:cy="200"
   inkscape:window-width="1920"
   inkscape:window-height="1009"
   inkscape:window-x="1912"
   inkscape:window-y="-8"
   inkscape:window-maximized="1"
   inkscape:current-layer="Capa_1" />&#10;<path
   d="m 191.73734,43.364999 c -3.14103,-0.994365 -6.43822,-1.498222 -9.79978,-1.498222 -13.49065,0 -27.07961,7.854543 -37.28305,21.550176 -0.54837,0.735267 -0.80235,1.646068 -0.71453,2.556868 l 2.62708,27.124257 c 0.0714,0.732794 0.36076,1.428504 0.83179,1.99763 11.40944,13.783642 17.69298,31.209012 17.69298,49.066542 0,1.62283 -0.0539,3.2946 -0.16067,4.96737 -0.0678,1.06508 0.33081,2.1079 1.09324,2.86047 0.70405,0.69472 1.65459,1.08189 2.64155,1.08189 0.0828,0 0.16615,-0.003 0.24949,-0.008 19.31214,-1.27918 38.1777,-18.85486 45.87681,-42.74088 4.71876,-14.638079 4.81506,-29.732548 0.27194,-42.502052 -4.41339,-12.40657 -12.6983,-21.091315 -23.32685,-24.455641 z m 15.92562,64.700471 c -6.20968,19.26428 -20.24871,33.8455 -35.09157,37.015 0.003,-0.30755 0.005,-0.61363 0.005,-0.91822 0,-19.18714 -6.62083,-37.91987 -18.66647,-52.883301 L 151.52985,66.703648 C 160.0837,55.76959 171.36591,49.28372 181.9371,49.28372 c 2.58766,0 5.11793,0.385681 7.52197,1.146659 8.34328,2.640927 14.92969,9.692957 18.54623,19.856642 4.00473,11.253976 3.88297,24.670732 -0.3428,37.778449 z"
   id="path1"
   style="stroke-width:0.496711" /><path
   d="m 229.18205,62.887878 c -6.0091,-16.889864 -17.68949,-28.841526 -32.89012,-33.654134 -4.62495,-1.46361 -9.45298,-2.2058 -14.35137,-2.2058 -11.35258,0 -22.90673,4.020479 -33.1456,11.436928 l -1.211,-12.503483 c -0.15817,-1.636178 -1.38464,-2.973701 -3.01328,-3.286201 L 32.852759,1.2239038 C 31.818892,1.0251297 30.745109,1.267911 29.900352,1.893901 29.055595,2.5198911 28.516707,3.4702487 28.415416,4.5101043 L 20.01226,91.278454 C 7.9661222,106.24189 1.345786,124.97462 1.345786,144.16176 c 0,28.32382 14.315454,54.68512 37.790005,70.3764 -2.048772,2.01643 -3.318651,4.80916 -3.318651,7.88966 0,6.1343 5.036605,11.12541 11.226828,11.12541 h 79.835222 c 6.19023,0 11.22684,-4.99111 11.22684,-11.12541 0,-3.0815 -1.27088,-5.87521 -3.32065,-7.89163 16.53687,-11.07053 28.80903,-27.6558 34.38952,-46.63379 11.55066,-0.59682 22.98506,-5.19136 33.22443,-13.37917 12.04114,-9.62818 21.5071,-23.72285 26.65349,-39.68807 5.70472,-17.698804 5.75113,-36.148204 0.12923,-51.947282 z m -7.25952,49.691542 c -4.70628,14.59852 -13.30902,27.44516 -24.224,36.17243 -9.65408,7.71956 -20.40788,11.80036 -31.09981,11.80086 l -0.27943,-0.004 c -1.72892,0 -3.22285,1.14913 -3.64547,2.79224 -5.17731,20.13254 -18.56568,37.55841 -36.79606,47.96141 H 62.013073 c -2.067232,0 -3.742276,1.65991 -3.742276,3.70847 0,2.04856 1.675044,3.70847 3.742276,3.70847 H 126.8782 c 2.06474,0 3.74327,1.66338 3.74327,3.70848 0,2.0451 -1.67853,3.70847 -3.74228,3.70847 H 47.043968 c -2.06374,0 -3.742276,-1.66337 -3.742276,-3.70847 0,-2.0451 1.678536,-3.70848 3.742276,-3.70848 1.702986,0 3.191414,-1.13973 3.621526,-2.77245 0.429115,-1.63371 -0.307865,-3.34801 -1.794296,-4.17228 C 24.173172,198.08096 8.8303385,172.17308 8.8303385,144.16176 c 0,-17.85753 6.2835315,-35.28289 17.6929825,-49.066547 0.471029,-0.569126 0.760431,-1.264836 0.831784,-1.997629 L 35.472352,9.2821658 140.40179,29.429551 l 1.61068,16.628788 c 0.13521,1.39389 1.05132,2.593952 2.3691,3.101765 1.31529,0.506825 2.81021,0.236353 3.86103,-0.701148 10.12161,-9.036804 22.08941,-14.014067 33.69845,-14.014067 4.12449,0 8.18661,0.624011 12.07408,1.854236 12.91434,4.088713 22.89724,14.407165 28.10849,29.055134 5.08251,14.284044 5.01115,31.055731 -0.20109,47.225161 z"
   id="path2"
   style="stroke-width:0.496711" /><path
   d="m 74.792697,121.77346 c 1.499405,5.3674 4.364493,10.43564 8.614221,14.64698 6.36187,6.30391 14.819414,9.77603 23.815852,9.77603 8.99593,0 17.45347,-3.47162 23.81534,-9.77603 0.70155,-0.69571 1.09574,-1.63865 1.09574,-2.62263 0,-0.98397 -0.39419,-1.92643 -1.09574,-2.62262 L 88.698996,89.218522 c -1.461982,-1.447787 -3.831093,-1.447787 -5.292576,0 -8.717509,8.639256 -11.640974,20.873748 -8.783872,31.930938 0.01846,0.10285 0.03892,0.20569 0.06686,0.30854 0.02994,0.10828 0.06536,0.21261 0.103286,0.31546 z m 8.360246,1.2772 18.777747,-4.98616 -5.035111,18.62097 c -3.021763,-1.28461 -5.801027,-3.13686 -8.196084,-5.51028 -2.427989,-2.40556 -4.273181,-5.17209 -5.546552,-8.12453 z m 24.069827,15.72886 c -1.04286,0 -2.07472,-0.0673 -3.09511,-0.18541 l 5.0321,-18.60961 13.75312,13.62937 c -4.5042,3.35247 -9.95595,5.16565 -15.69011,5.16565 z M 86.242067,97.272828 99.993685,110.90023 81.224422,115.88391 c -0.769411,-6.4646 0.901141,-13.16309 5.017645,-18.611082 z"
   id="path3"
   style="stroke-width:0.496711" /><path
   d="m 51.652457,120.68664 c -8.717508,8.63925 -11.640974,20.87375 -8.783871,31.93093 0.01846,0.10285 0.03892,0.20569 0.06686,0.30854 0.02944,0.10828 0.06486,0.21311 0.102788,0.31646 1.499405,5.3669 4.364492,10.43464 8.613722,14.6455 6.36187,6.3039 14.819414,9.77553 23.815846,9.77553 8.995933,0 17.453478,-3.47163 23.815347,-9.77553 1.461491,-1.44878 1.461491,-3.79649 0,-5.24477 L 56.944037,120.68664 c -1.460486,-1.44779 -3.829596,-1.44779 -5.29158,0 z m 2.835149,8.05381 13.751618,13.62739 -18.769263,4.9837 c -0.768912,-6.46461 0.901141,-13.1631 5.017645,-18.61109 z m -3.089125,25.77783 18.777744,-4.98616 -5.035108,18.62098 c -3.021763,-1.28462 -5.801027,-3.13638 -8.196083,-5.5098 -2.42749,-2.40606 -4.272682,-5.17258 -5.546553,-8.12502 z m 24.070321,15.72787 c -1.042847,0 -2.074718,-0.0673 -3.094613,-0.18541 l 5.031615,-18.60912 13.753115,13.62938 c -4.504204,3.35246 -9.956451,5.16515 -15.690117,5.16515 z"
   id="path4"
   style="stroke-width:0.496711" /><path
   d="m 139.44376,97.17888 -3.09062,-31.914119 c -0.18411,-1.902198 -1.79729,-3.353942 -3.72531,-3.353942 H 41.294835 c -1.928021,0 -3.541192,1.452238 -3.725312,3.353942 l -3.090122,31.914119 -2.169023,2.620159 c -8.634181,10.430691 -14.009586,23.062741 -15.546414,36.529931 -0.23252,2.03521 1.243933,11.36617 3.297694,11.59609 2.051266,0.2329 3.589669,13.59892 4.138958,-10.76243 1.374662,-12.04313 6.179745,-23.33667 13.896817,-32.65976 l 2.891532,-3.49338 c 0.471029,-0.56913 0.760431,-1.264841 0.831783,-1.997141 l 2.874568,-29.684092 h 84.532534 l 2.87506,29.684092 c 0.0714,0.732793 0.36076,1.428501 0.83179,1.997621 l 2.89153,3.4929 c 9.21997,11.13876 14.29749,25.22403 14.29749,39.65987 0,13.00487 -3.98228,25.4683 -11.51773,36.04338 -4.61847,6.48142 -10.31072,11.9487 -16.93155,16.26388 H 52.248727 c -6.621834,-4.31567 -12.314086,-9.78246 -16.931556,-16.26388 -6.111386,-8.57695 -9.957947,-18.61652 -11.12404,-29.03486 -0.781875,-18.75125 -2.194005,-20.10109 -4.250262,-19.87512 -2.05426,0.22547 -4.366719,2.09818 -3.188385,20.69198 1.304807,11.66091 5.609422,22.89808 12.448308,32.4961 5.393367,7.56924 12.101523,13.90281 19.939346,18.82617 0.599263,0.37629 1.294329,0.57606 2.003865,0.57606 h 71.631157 c 0.70954,0 1.40411,-0.19977 2.00387,-0.57606 7.83682,-4.92237 14.54498,-11.25693 19.93934,-18.82617 8.4311,-11.83399 12.8879,-25.77635 12.8879,-40.32148 0,-16.14669 -5.68078,-31.90225 -15.99549,-44.364195 z"
   id="path5"
   sodipodi:nodetypes="ccssccccccccccccccssccccccccssccscc"
   style="stroke-width:0.496711" />&#10;<path
   style="fill:#ffff00;fill-opacity:1;stroke:#000000;stroke-width:0.379504;stroke-linecap:round;stroke-linejoin:round;stroke-dasharray:none"
   d="m 50.717542,195.24924 c -6.200211,-4.23268 -12.880759,-11.19688 -17.125208,-17.85233 -3.111324,-4.87867 -6.185227,-11.94653 -7.624747,-17.53165 -1.566161,-6.07648 -1.772396,-7.90051 -1.757172,-15.54124 0.01527,-7.6585 0.196711,-9.40557 1.54812,-14.90594 2.367658,-9.63662 6.100124,-16.92739 13.103258,-25.59515 2.385153,-2.95209 2.892227,-3.71046 3.007739,-4.498259 0.07641,-0.521149 0.764288,-7.440039 1.528613,-15.375314 l 1.389677,-14.42777 42.142499,-0.05607 42.142499,-0.05607 0.13593,1.054912 c 0.0748,0.580202 0.74511,7.388492 1.48968,15.129526 0.9829,10.218798 1.45023,14.259465 1.70589,14.749365 0.19365,0.37112 1.38299,1.92843 2.64295,3.46067 8.05337,9.79381 12.51953,19.69961 14.36608,31.86343 0.54786,3.60894 0.65454,11.38846 0.2085,15.20465 -1.64888,14.10764 -7.4085,26.31255 -17.26476,36.58481 -2.36924,2.46924 -6.17082,5.7254 -8.95224,7.66783 l -1.79036,1.25033 H 86.990527 52.366563 Z m 31.534909,-18.1532 c 2.644392,-0.56507 5.256935,-1.42117 7.620228,-2.49704 3.748289,-1.70637 9.22282,-5.77343 10.121699,-7.51945 0.492832,-0.95733 0.580962,-2.28941 0.215892,-3.26359 -0.264625,-0.70616 -43.213403,-43.42334 -44.160534,-43.9224 -0.781691,-0.4119 -2.712272,-0.4094 -3.520049,0.004 -0.969335,0.49673 -3.486721,3.31358 -5.077411,5.6814 -4.099674,6.10257 -5.882084,12.43302 -5.621452,19.96532 0.278161,8.03881 3.018914,14.92181 8.346208,20.96026 5.365906,6.08221 12.436183,9.73046 21.484813,11.08611 1.720338,0.25774 8.564822,-0.0623 10.590606,-0.49515 z m 32.552189,-31.62289 c 5.64387,-1.32276 10.57117,-3.86897 15.07364,-7.78941 2.23455,-1.94571 2.8209,-3.50942 2.02805,-5.40849 -0.42975,-1.02931 -42.793124,-43.141182 -44.052355,-43.790803 -0.970726,-0.500786 -2.354211,-0.553338 -3.380488,-0.128412 -0.947479,0.392307 -3.349956,2.978605 -5.033336,5.418453 -4.386622,6.357852 -6.325824,13.491712 -5.836764,21.472032 0.568017,9.26873 5.386557,18.26598 12.825609,23.94816 4.985975,3.80844 9.181066,5.56018 16.479314,6.88122 0.30798,0.0557 2.57588,0.0683 5.03975,0.0279 3.83269,-0.0629 4.8231,-0.154 6.85658,-0.63059 z"
   id="path6" /><path
   style="fill:#ff5555;stroke:#ff5555;stroke-width:0.837392;stroke-linecap:round;stroke-linejoin:round"
   d="m 92.553621,218.52322 c -3.055229,1.39669 -3.940157,5.34435 -5.627172,8.0214 -3.510845,7.45815 -4.868071,16.06624 -3.611374,24.19819 1.543543,2.51934 4.732122,-0.26741 6.870772,-0.25945 8.625454,-2.38822 17.398693,-4.32757 25.889833,-7.15522 2.26024,-2.36293 -1.93066,-4.19981 -3.09617,-5.96075 -6.447,-6.25607 -12.74509,-12.69818 -19.479356,-18.63949 -0.292168,-0.14986 -0.615181,-0.24557 -0.946533,-0.20468 z"
   id="path7"
   transform="scale(0.58750125)" /><path
   style="fill:#ff5555;stroke:#ff5555;stroke-width:0.837392;stroke-linecap:round;stroke-linejoin:round"
   d="m 118.59625,253.67082 c -10.45982,2.454 -20.853526,5.22947 -31.194267,8.15171 -2.511047,1.81595 0.796706,4.68544 1.565604,6.77252 4.928237,8.19603 12.534393,14.65506 21.139653,18.71853 2.91522,-0.24789 2.31222,-4.28477 3.39908,-6.28816 2.27133,-8.69084 5.10996,-17.31641 6.73603,-26.13228 -0.34442,-0.73873 -0.77866,-1.23626 -1.6461,-1.22232 z"
   id="path8"
   transform="scale(0.58750125)" /><path
   style="fill:#ff5555;stroke:#ff5555;stroke-width:0.837392;stroke-linecap:round;stroke-linejoin:round"
   d="m 130.81757,257.25899 c -3.20009,10.24514 -5.85332,20.75556 -8.53705,31.18178 0.19465,3.15228 4.49062,2.10627 6.60651,2.35816 9.45714,0.10429 19.10023,-2.91989 26.52983,-8.77729 1.04978,-2.57486 -2.54961,-4.03262 -3.72689,-5.90951 -6.36747,-6.36488 -12.58746,-13.01442 -19.20321,-19.04248 -0.56666,-0.51599 -1.10313,0.01 -1.66919,0.18934 z"
   id="path9"
   transform="scale(0.58750125)" /><path
   style="fill:#ff5555;stroke:#ff5555;stroke-width:0.837392;stroke-linecap:round;stroke-linejoin:round"
   d="m 146.50792,164.8178 c -3.01987,1.59234 -3.85679,5.54902 -5.52064,8.34103 -3.16288,7.0836 -4.9951,15.11367 -3.96871,22.86573 0.32749,2.93186 3.75612,2.229 5.63167,1.34556 9.18186,-2.56366 18.59055,-4.66485 27.63133,-7.51665 2.07462,-2.48712 -2.70908,-4.40872 -3.88779,-6.38748 -6.35478,-6.15672 -12.33619,-12.76981 -19.03158,-18.54056 -0.28476,0.0607 -0.56952,-0.16015 -0.85428,-0.10763 z"
   id="path10"
   transform="scale(0.58750125)" /><path
   style="fill:#ff5555;stroke:#ff5555;stroke-width:0.837392;stroke-linecap:round;stroke-linejoin:round"
   d="m 172.64087,200.03459 c -10.52098,2.61949 -21.13556,5.31182 -31.46755,8.4222 -1.78857,1.9429 1.14825,4.46621 1.86147,6.51971 4.84526,8.27226 12.49673,14.78427 21.20068,18.70277 2.9071,-0.27081 2.2817,-4.29253 3.36721,-6.3 2.25154,-8.69875 5.08914,-17.33003 6.7285,-26.14349 -0.3774,-0.78374 -0.77683,-1.20405 -1.69031,-1.20119 z"
   id="path11"
   transform="scale(0.58750125)" /><path
   style="fill:#ff5555;stroke:#ff5555;stroke-width:0.837392;stroke-linecap:round;stroke-linejoin:round"
   d="m 184.89295,203.60163 c -3.20881,10.32026 -5.79555,20.92496 -8.53417,31.41432 0.25938,2.96033 4.24105,2.36451 6.38741,2.47156 9.41026,-0.53003 19.23232,-2.85592 26.61344,-8.9887 1.13649,-2.58033 -2.42531,-4.11241 -3.58557,-5.99691 -6.32424,-6.42629 -12.59256,-13.049 -19.21303,-19.09119 -0.56681,-0.51555 -1.10252,0.0111 -1.66808,0.19092 z"
   id="path12"
   transform="scale(0.58750125)" /><path
   style="fill:#ffffff;stroke:#ffffff;stroke-width:0.837392;stroke-linecap:round;stroke-linejoin:round"
   d="m 60.149523,15.763376 c -1.326078,5.655322 -1.315034,11.701129 -2.117773,17.500283 -4.254498,42.202649 -8.256119,84.430691 -12.368504,126.647551 -9.238883,11.4623 -16.918823,24.16389 -22.309459,37.88251 -5.915281,14.98927 -9.030446,31.0803 -8.762766,47.21128 -0.65872,33.85651 13.198598,67.59174 36.960068,91.63852 8.937797,9.47318 19.293649,17.49704 30.480163,24.13542 2.316325,1.18119 4.183085,3.35 3.428659,6.1491 -0.119906,3.3591 -3.718032,4.74103 -6.619006,4.76534 -4.728418,0.98466 -7.736221,7.19901 -4.2397,11.06338 2.549132,3.83811 7.752925,2.25188 11.574465,2.75378 41.46487,0.31276 82.93538,0.32409 124.40051,0.058 3.89845,-0.25355 9.10401,0.71061 11.31516,-3.49977 2.69864,-3.18606 0.42834,-8.48095 -3.14134,-9.78725 -13.88825,-1.04574 -27.8667,-0.47939 -41.78966,-0.75878 -24.67069,-0.11285 -49.34144,-0.21292 -74.01215,-0.3194 -2.52655,-1.87999 -3.685607,-5.09138 -2.2246,-8.04698 0.89873,-2.85171 4.76139,-1.7178 6.99139,-2.22013 33.19447,-0.60103 66.43357,-0.12963 99.64588,-0.28025 3.43095,-0.0909 7.1818,0.7606 9.88068,-1.9613 18.8784,-11.83182 35.51569,-27.77914 46.52447,-47.27832 6.19505,-10.4277 10.54636,-21.7994 14.11971,-33.34897 0.70537,-3.00849 3.70674,-4.11172 6.44892,-3.95623 23.65281,-0.6526 45.87133,-12.40343 62.17409,-29.12947 21.06398,-21.41408 34.2338,-50.19552 37.76729,-79.93802 0.59195,-11.22328 0.93494,-22.56236 -0.37424,-33.74598 -3.79132,-23.06176 -14.40508,-46.143849 -33.7855,-60.103003 -11.95744,-8.65394 -26.69828,-13.792246 -41.55132,-12.976712 -20.39795,-0.274492 -39.56976,9.496589 -54.97294,22.226793 -2.24,2.455907 -6.03764,3.702421 -8.95699,1.715287 -3.14999,-2.453757 -1.94615,-7.123877 -2.83273,-10.550391 -0.93666,-7.228732 -1.06292,-14.695304 -2.38183,-21.806109 -3.49543,-1.560335 -7.83949,-1.640561 -11.63959,-2.64607 C 172.18943,36.479095 116.60361,25.75098 60.932695,15.501999 l -0.466699,0.155757 z M 309.23662,72.193073 c 13.75315,-0.367917 27.56517,4.882351 37.49424,14.482435 16.52862,15.123042 23.57794,38.050782 24.03489,59.878382 1.04169,34.98851 -13.49384,70.63996 -40.04596,93.86275 -12.46522,10.66911 -27.97302,18.81775 -44.55359,19.22646 -3.09736,-0.25061 -4.61069,-3.40916 -4.3454,-6.18561 -0.39574,-13.19514 -0.38649,-26.55956 -3.92739,-39.39307 -4.67522,-19.28626 -14.09024,-37.1901 -26.36454,-52.70987 -1.98648,-2.90783 -1.14013,-6.87707 -1.92419,-10.20618 -1.18949,-13.09495 -3.096,-26.16194 -3.48403,-39.28644 -0.0432,-4.89411 4.67754,-7.79509 7.25072,-11.39653 14.15338,-15.998684 34.01223,-28.357528 55.86525,-28.272327 z m -115.502,34.163587 c 11.57009,0.20921 23.20092,-0.42158 34.71134,0.56408 3.64729,1.64375 2.48512,6.41344 3.28349,9.58879 1.95384,16.32502 3.05588,32.86185 5.03543,49.1837 12.98529,15.15603 23.06466,32.91045 27.51864,52.4408 3.54764,13.80809 3.30106,28.23346 2.28417,42.31147 -3.79638,28.95463 -18.67559,56.36092 -41.13519,75.05835 -4.75496,3.84909 -9.54173,8.12641 -15.09463,10.60597 -41.72711,-0.019 -83.51583,0.31274 -125.205644,-0.092 -29.820533,-17.91505 -50.920855,-50.03901 -55.41878,-84.49128 -1.1337,-15.14098 -1.585666,-30.73014 2.608971,-45.47778 4.761835,-18.48411 14.101808,-35.78906 26.86712,-50.09321 2.280339,-18.58067 3.548266,-37.37912 5.784903,-56.00016 1.028556,-2.23441 2.806829,-4.22131 5.503341,-3.42551 41.085609,-0.0572 82.171199,-0.14105 123.256839,-0.17324 z"
   id="path13"
   transform="scale(0.58750125)" /></svg>
