<?xml version="1.0" encoding="UTF-8" standalone="no"?>
<!-- Uploaded to: SVG Repo, www.svgrepo.com, Generator: SVG Repo Mixer Tools -->

<svg
   fill="#000000"
   height="800px"
   width="800px"
   version="1.1"
   id="Capa_1"
   viewBox="0 0 470.001 470.001"
   xml:space="preserve"
   sodipodi:docname="Yello lemonade.svg"
   inkscape:version="1.3 (0e150ed6c4, 2023-07-21)"
   xmlns:inkscape="http://www.inkscape.org/namespaces/inkscape"
   xmlns:sodipodi="http://sodipodi.sourceforge.net/DTD/sodipodi-0.dtd"
   xmlns="http://www.w3.org/2000/svg"
   xmlns:svg="http://www.w3.org/2000/svg"><defs
   id="defs5">&#10;	&#10;	&#10;	&#10;	&#10;	&#10;</defs><sodipodi:namedview
   id="namedview5"
   pagecolor="#ffffff"
   bordercolor="#000000"
   borderopacity="0.25"
   inkscape:showpageshadow="2"
   inkscape:pageopacity="0.0"
   inkscape:pagecheckerboard="0"
   inkscape:deskcolor="#d1d1d1"
   inkscape:zoom="1.30875"
   inkscape:cx="400"
   inkscape:cy="400"
   inkscape:window-width="2400"
   inkscape:window-height="1261"
   inkscape:window-x="2391"
   inkscape:window-y="-9"
   inkscape:window-maximized="1"
   inkscape:current-layer="Capa_1" />&#10;<path
   d="m 384.071,85.363 c -6.295,-2.011 -12.903,-3.03 -19.64,-3.03 -27.037,0 -54.271,15.885 -74.72,43.583 -1.099,1.487 -1.608,3.329 -1.432,5.171 l 5.265,54.856 c 0.143,1.482 0.723,2.889 1.667,4.04 22.866,27.876 35.459,63.117 35.459,99.232 0,3.282 -0.108,6.663 -0.322,10.046 -0.136,2.154 0.663,4.263 2.191,5.785 1.411,1.405 3.316,2.188 5.294,2.188 0.166,0 0.333,-0.006 0.5,-0.017 38.704,-2.587 76.513,-38.132 91.943,-86.439 9.457,-29.604 9.65,-60.131 0.545,-85.956 -8.845,-25.091 -25.449,-42.655 -46.75,-49.459 z m 31.917,130.85 c -12.445,38.96 -40.581,68.449 -70.328,74.859 0.007,-0.622 0.011,-1.241 0.011,-1.857 0,-38.804 -13.269,-76.689 -37.41,-106.951 l -4.77,-49.701 c 17.143,-22.113 39.754,-35.23 60.94,-35.23 5.186,0 10.257,0.78 15.075,2.319 16.721,5.341 29.921,19.603 37.169,40.158 8.026,22.76 7.782,49.894 -0.687,76.403 z"
   id="path1" /><path
   d="M 459.115,124.846 C 447.072,90.688 423.663,66.517 393.199,56.784 c -9.269,-2.96 -18.945,-4.461 -28.762,-4.461 -22.752,0 -45.908,8.131 -66.428,23.13 l -2.427,-25.287 c -0.317,-3.309 -2.775,-6.014 -6.039,-6.646 L 65.646,0.137 C 63.574,-0.265 61.422,0.226 59.729,1.492 58.036,2.758 56.956,4.68 56.753,6.783 L 39.912,182.263 C 15.77,212.525 2.502,250.41 2.502,289.214 c 0,57.282 28.69,110.595 75.736,142.329 -4.106,4.078 -6.651,9.726 -6.651,15.956 0,12.406 10.094,22.5 22.5,22.5 h 160 c 12.406,0 22.5,-10.094 22.5,-22.5 0,-6.232 -2.547,-11.882 -6.655,-15.96 33.142,-22.389 57.737,-55.931 68.921,-94.312 23.149,-1.207 46.065,-10.499 66.586,-27.058 24.132,-19.472 43.103,-47.977 53.417,-80.265 11.433,-35.794 11.526,-73.106 0.259,-105.058 z m -14.549,100.496 c -9.432,29.524 -26.673,55.505 -48.548,73.155 -19.348,15.612 -40.9,23.865 -62.328,23.866 l -0.56,-0.008 c -3.465,0 -6.459,2.324 -7.306,5.647 -10.376,40.716 -37.208,75.958 -73.744,96.997 H 124.087 c -4.143,0 -7.5,3.357 -7.5,7.5 0,4.143 3.357,7.5 7.5,7.5 h 129.998 c 4.138,0 7.502,3.364 7.502,7.5 0,4.136 -3.364,7.5 -7.5,7.5 h -160 c -4.136,0 -7.5,-3.364 -7.5,-7.5 0,-4.136 3.364,-7.5 7.5,-7.5 3.413,0 6.396,-2.305 7.258,-5.607 0.86,-3.304 -0.617,-6.771 -3.596,-8.438 -49.498,-27.694 -80.247,-80.09 -80.247,-136.74 0,-36.115 12.593,-71.356 35.459,-99.232 0.944,-1.151 1.524,-2.558 1.667,-4.04 L 70.896,16.434 281.188,57.18 l 3.228,33.63 c 0.271,2.819 2.107,5.246 4.748,6.273 2.636,1.025 5.632,0.478 7.738,-1.418 20.285,-18.276 44.27,-28.342 67.536,-28.342 8.266,0 16.407,1.262 24.198,3.75 25.882,8.269 45.889,29.137 56.333,58.761 10.186,28.888 10.043,62.807 -0.403,95.508 z"
   id="path2" /><path
   d="m 149.699,243.936 c 3.005,10.855 8.747,21.105 17.264,29.622 12.75,12.749 29.7,19.771 47.73,19.771 18.029,0 34.979,-7.021 47.729,-19.771 1.406,-1.407 2.196,-3.314 2.196,-5.304 0,-1.99 -0.79,-3.896 -2.196,-5.304 l -84.853,-84.853 c -2.93,-2.928 -7.678,-2.928 -10.607,0 -17.471,17.472 -23.33,42.215 -17.604,64.577 0.037,0.208 0.078,0.416 0.134,0.624 0.06,0.219 0.131,0.43 0.207,0.638 z m 16.755,2.583 37.633,-10.084 -10.091,37.659 c -6.056,-2.598 -11.626,-6.344 -16.426,-11.144 -4.866,-4.865 -8.564,-10.46 -11.116,-16.431 z m 48.239,31.81 c -2.09,0 -4.158,-0.136 -6.203,-0.375 l 10.085,-37.636 27.563,27.564 c -9.027,6.78 -19.953,10.447 -31.445,10.447 z m -42.048,-83.943 27.56,27.56 -37.616,10.079 c -1.542,-13.074 1.806,-26.621 10.056,-37.639 z"
   id="path3" /><path
   d="m 103.323,241.738 c -17.471,17.472 -23.33,42.215 -17.604,64.577 0.037,0.208 0.078,0.416 0.134,0.624 0.059,0.219 0.13,0.431 0.206,0.64 3.005,10.854 8.747,21.103 17.263,29.619 12.75,12.749 29.7,19.77 47.73,19.77 18.029,0 34.979,-7.021 47.729,-19.77 2.929,-2.93 2.929,-7.678 0,-10.607 l -84.853,-84.853 c -2.927,-2.928 -7.675,-2.928 -10.605,0 z m 5.682,16.288 27.56,27.56 -37.616,10.079 c -1.541,-13.074 1.806,-26.621 10.056,-37.639 z m -6.191,52.133 37.633,-10.084 -10.091,37.659 c -6.056,-2.598 -11.626,-6.343 -16.426,-11.143 -4.865,-4.866 -8.563,-10.461 -11.116,-16.432 z m 48.24,31.808 c -2.09,0 -4.158,-0.136 -6.202,-0.375 l 10.084,-37.635 27.563,27.564 c -9.027,6.78 -19.954,10.446 -31.445,10.446 z"
   id="path4" /><path
   d="m 279.268,194.196 -6.194,-64.543 c -0.369,-3.847 -3.602,-6.783 -7.466,-6.783 H 82.565 c -3.864,0 -7.097,2.937 -7.466,6.783 l -6.193,64.543 -4.347,5.299 c -17.304,21.095 -28.077,46.642 -31.157,73.878 -0.466,4.116 2.493,22.9869 6.609,23.4519 4.111,0.471 7.194156,27.50239 8.295,-21.7659 2.755,-24.356 12.385,-47.196 27.851,-66.051 l 5.795,-7.065 c 0.944,-1.151 1.524,-2.558 1.667,-4.039 l 5.761,-60.033 h 169.414 l 5.762,60.033 c 0.143,1.482 0.723,2.889 1.667,4.04 l 5.795,7.064 c 18.478,22.527 28.654,51.013 28.654,80.208 0,26.301 -7.981,51.507 -23.083,72.894 -9.256,13.108 -20.664,24.165 -33.933,32.892 H 104.518 C 91.247,386.274 79.839,375.218 70.585,362.11 58.337,344.764 50.628,324.46 48.291,303.39 c -1.566977,-37.92245 -4.397067,-40.65238 -8.518067,-40.19538 -4.117,0.456 -8.751465,4.24335 -6.389933,41.84738 2.615,23.583 11.242,46.309 24.948,65.72 10.809,15.308 24.253,28.117 39.961,38.074 1.201,0.761 2.594,1.165 4.016,1.165 h 143.558 c 1.422,0 2.814,-0.404 4.016,-1.165 15.706,-9.955 29.15,-22.766 39.961,-38.074 16.897,-23.933 25.829,-52.13 25.829,-81.546 0,-32.655 -11.385,-64.519 -32.057,-89.722 z"
   id="path5"
   sodipodi:nodetypes="ccssccccccccccccccssccccccccssccscc" />&#10;<path
   style="fill:#ffff00;fill-opacity:1;stroke:#000000;stroke-width:1.30048;stroke-linecap:round;stroke-linejoin:round;stroke-dasharray:none"
   d="m 172.67931,668.14009 c -21.15062,-14.57043 -43.9398,-38.54378 -58.41878,-61.45432 -10.61358,-16.79419 -21.099505,-41.12435 -26.010102,-60.35041 -5.342605,-20.91746 -6.04613,-27.19649 -5.994192,-53.49868 0.05206,-26.36338 0.671033,-32.37746 5.281059,-51.31177 8.07673,-33.17277 20.809195,-58.27034 44.698805,-88.10796 8.13641,-10.16221 9.86618,-12.77278 10.26022,-15.48466 0.26067,-1.79399 2.6072,-25.61137 5.21452,-52.92751 l 4.74057,-49.66572 143.75962,-0.193 143.75964,-0.19301 0.46368,3.6314 c 0.25502,1.99727 2.5418,25.43391 5.08172,52.08141 3.35291,35.17689 4.94711,49.08635 5.8192,50.77279 0.66064,1.27752 4.71777,6.63835 9.01584,11.91293 27.47226,33.71388 42.70759,67.81328 49.00665,109.68567 1.86889,12.4233 2.23283,39.2033 0.71129,52.34002 -5.62481,48.56372 -25.27248,90.57753 -58.89486,125.93844 -8.08213,8.50005 -21.05038,19.70894 -30.53854,26.3955 l -6.10743,4.30407 H 296.4164 178.30458 Z m 107.57422,-62.49 c 9.02075,-1.9452 17.93284,-4.89219 25.99469,-8.59575 12.78644,-5.87398 31.46157,-19.87429 34.52787,-25.88474 1.68122,-3.29547 1.98183,-7.881 0.73649,-11.23447 -0.90272,-2.43087 -147.41277,-149.47919 -150.64369,-151.19714 -2.66656,-1.41788 -9.2523,-1.40927 -12.00786,0.0157 -3.30666,1.70994 -11.89416,11.40657 -17.32044,19.55747 -13.98511,21.00728 -20.0654,42.79908 -19.17631,68.72802 0.94888,27.67258 10.29834,51.36639 28.4712,72.15294 18.30458,20.93722 42.42324,33.49585 73.29059,38.16252 5.86855,0.88724 29.21696,-0.21436 36.12746,-1.70453 z M 391.29797,496.79242 c 19.25277,-4.55341 36.06117,-13.31846 51.4203,-26.81407 7.6227,-6.69785 9.62292,-12.08071 6.91826,-18.61798 -1.46597,-3.5433 -145.97909,-148.50791 -150.27467,-150.74415 -3.31141,-1.72389 -8.03086,-1.90479 -11.53176,-0.44203 -3.23212,1.35046 -11.42762,10.25346 -17.1701,18.65232 -14.96396,21.88607 -21.57911,46.44343 -19.91079,73.91466 1.93766,31.9064 18.37502,62.87825 43.75166,82.43842 17.00852,13.11007 31.31913,19.14019 56.21546,23.68773 1.05062,0.1919 8.78701,0.23501 17.19198,0.0958 13.07437,-0.21656 16.45291,-0.53011 23.38966,-2.17069 z"
   id="path6"
   transform="scale(0.58750125)" /><path
   style="fill:#ff6600;fill-opacity:1;stroke:#000000;stroke-width:1.30048;stroke-linecap:round;stroke-linejoin:round;stroke-dasharray:none"
   d="m 168.59703,500.73018 c -0.74056,-2.76574 -0.58225,-12.12893 0.31664,-18.72647 1.80945,-13.28077 6.05027,-25.37626 12.55808,-35.81762 1.95034,-3.12919 3.78168,-5.68943 4.06964,-5.68943 0.28796,0 10.74625,10.22922 23.24065,22.73161 l 22.7171,22.73162 -29.59866,7.87984 c -16.27927,4.33392 -30.32495,8.05791 -31.21264,8.27555 -1.21894,0.29884 -1.73068,-0.0402 -2.09081,-1.3851 z"
   id="path7"
   transform="scale(0.58750125)" /><path
   style="fill:#ff6600;fill-opacity:1;stroke:#000000;stroke-width:1.30048;stroke-linecap:round;stroke-linejoin:round;stroke-dasharray:none"
   d="m 215.81598,571.2967 c -11.32053,-5.98031 -20.69362,-13.76308 -28.28718,-23.48774 -6.0541,-7.75315 -12.3895,-19.27079 -10.89598,-19.80869 2.62889,-0.94681 61.24802,-16.44862 61.44701,-16.24964 0.2709,0.2709 -15.4472,59.21233 -16.29096,61.0896 -0.52244,1.16235 -1.16514,0.99626 -5.97289,-1.54353 z"
   id="path8"
   transform="scale(0.58750125)" /><path
   style="fill:#ff6600;fill-opacity:1;stroke:#000000;stroke-width:1.30048;stroke-linecap:round;stroke-linejoin:round;stroke-dasharray:none"
   d="m 249.66571,581.35921 c -1.15568,-0.20454 -2.10124,-0.75104 -2.10124,-1.21443 0,-0.4634 3.67402,-14.55812 8.16449,-31.32159 l 8.1645,-30.47904 22.78106,22.77157 c 12.52959,12.52437 22.77806,22.94565 22.77438,23.1584 -0.0101,0.5845 -8.22595,5.68743 -12.95574,8.0469 -6.40507,3.19519 -13.50917,5.70635 -20.65744,7.302 -6.38764,1.42586 -22.05178,2.46506 -26.17001,1.73619 z"
   id="path9"
   transform="scale(0.58750125)" /><path
   style="fill:#ff6600;fill-opacity:1;stroke:#000000;stroke-width:1.30048;stroke-linecap:round;stroke-linejoin:round;stroke-dasharray:none"
   d="m 276.84744,392.66643 c -1.10412,-2.8773 0.41907,-22.11268 2.3425,-29.58194 2.80941,-10.9098 8.11531,-22.54653 13.4845,-29.57378 l 1.44908,-1.89657 22.98102,22.95744 22.98101,22.95743 -30.5079,8.17915 c -16.77934,4.49852 -30.9025,8.17914 -31.3848,8.17914 -0.4823,0 -1.08774,-0.54939 -1.34541,-1.22087 z"
   id="path10"
   transform="scale(0.58750125)" /><path
   style="fill:#ff6600;fill-opacity:1;stroke:#000000;stroke-width:1.30048;stroke-linecap:round;stroke-linejoin:round;stroke-dasharray:none"
   d="m 323.20917,462.57051 c -15.43269,-8.40095 -29.3092,-22.64684 -37.01922,-38.00465 -1.12861,-2.24809 -1.86269,-4.27676 -1.6313,-4.50815 0.45109,-0.45109 61.80007,-17.05282 62.01278,-16.78136 0.0698,0.0891 -3.38064,13.23032 -7.66774,29.20265 -4.2871,15.97233 -8.03146,29.98379 -8.32079,31.13658 -0.28933,1.15279 -0.77738,2.09114 -1.08456,2.08523 -0.30718,-0.006 -3.13731,-1.41454 -6.28917,-3.1303 z"
   id="path11"
   transform="scale(0.58750125)" /><path
   style="fill:#ff6600;fill-opacity:1;stroke:#000000;stroke-width:1.30048;stroke-linecap:round;stroke-linejoin:round;stroke-dasharray:none"
   d="m 356.75642,472.72567 c -1.21448,-0.51755 0.59655,-7.93484 13.53064,-55.41614 l 2.04938,-7.52333 22.81101,22.80151 c 12.54605,12.54082 22.70984,23.10499 22.58619,23.47593 -0.39064,1.17193 -11.19387,7.39434 -17.59376,10.13361 -6.944,2.97216 -15.17079,5.24247 -23.06252,6.36448 -6.01508,0.85519 -18.46317,0.95561 -20.32094,0.16394 z"
   id="path12"
   transform="scale(0.58750125)" /></svg>
